M48
; DRILL file {KiCad 7.0.10} date Thu Apr  4 22:36:54 2024
; FORMAT={-:-/ absolute / inch / decimal}
; #@! TF.CreationDate,2024-04-04T22:36:54+05:30
; #@! TF.GenerationSoftware,Kicad,Pcbnew,7.0.10
; #@! TF.FileFunction,Plated,1,2,PTH
FMAT,2
INCH
; #@! TA.AperFunction,Plated,PTH,ViaDrill
T1C0.0276
; #@! TA.AperFunction,Plated,PTH,ComponentDrill
T2C0.0276
; #@! TA.AperFunction,Plated,PTH,ComponentDrill
T3C0.0315
; #@! TA.AperFunction,Plated,PTH,ComponentDrill
T4C0.0394
; #@! TA.AperFunction,Plated,PTH,ComponentDrill
T5C0.0433
; #@! TA.AperFunction,Plated,PTH,ViaDrill
T6C0.0472
; #@! TA.AperFunction,Plated,PTH,ViaDrill
T7C0.0669
%
G90
G05
T1
X4.13Y-2.72
X4.13Y-2.82
X4.13Y-2.92
X4.13Y-3.03
X4.13Y-3.15
X4.13Y-3.29
X4.13Y-3.43
X4.17Y-2.04
X4.17Y-2.15
X4.17Y-2.25
X4.19Y-2.64
X4.26Y-2.09
X4.26Y-2.2
X4.31Y-2.0
X4.37Y-2.09
X4.42Y-2.23
X4.45Y-1.86
X4.45Y-1.93
X4.54Y-2.28
X4.59Y-2.22
X4.61Y-2.66
X4.63Y-2.28
X4.66Y-2.61
X4.72Y-2.68
X4.7304Y-2.2796
X4.74Y-2.6
X4.82Y-2.65
X4.9Y-3.72
X4.98Y-1.91
X4.98Y-2.04
X5.02Y-2.15
X5.04Y-3.26
X5.08Y-1.92
X5.08Y-2.0
X5.08Y-2.08
X5.19Y-1.91
X5.19Y-2.04
X5.69Y-3.16
X5.84Y-1.92
X6.0Y-3.77
X6.04Y-3.85
X6.04Y-3.92
X6.05Y-4.0
X6.08Y-3.77
X6.14Y-3.85
X6.14Y-3.92
X6.14Y-4.0
X6.16Y-3.16
X6.17Y-3.77
X6.23Y-3.85
X6.23Y-3.92
X6.23Y-4.0
X6.26Y-3.77
X6.435Y-3.5308
X6.45Y-3.45
X6.49Y-1.92
X6.6Y-1.91
X6.79Y-2.6
X6.8Y-2.7
X6.8Y-2.8
X6.8Y-2.9
X6.8Y-2.99
X6.89Y-3.0
X6.9Y-2.6
X6.9Y-2.8
X6.9Y-2.9
X6.91Y-2.7
X7.0Y-2.6
X7.0Y-2.7
X7.0Y-2.89
X7.0Y-3.0
X7.0Y-3.51
X7.01Y-2.8
X7.1Y-2.6
X7.1Y-2.7
X7.1Y-2.8
X7.1Y-3.0
X7.11Y-2.89
X7.16Y-3.66
X7.2Y-2.6
X7.2Y-2.7
X7.2Y-2.79
X7.2Y-2.9
X7.21Y-3.0
X7.24Y-1.85
X7.24Y-1.93
X7.3Y-2.6
X7.3Y-2.7
X7.3Y-2.79
X7.3Y-2.9
X7.31Y-3.0
X7.37Y-1.85
X7.37Y-1.93
X7.39Y-2.79
X7.39Y-2.9
X7.4Y-2.6
X7.4Y-2.7
X7.41Y-3.0
X7.47Y-1.85
X7.47Y-1.93
X7.5Y-2.6
X7.5Y-2.7
X7.5Y-2.79
X7.5Y-2.9
X7.51Y-3.0
X7.6Y-2.6
X7.6Y-2.7
X7.6Y-2.8
X7.6Y-2.9
X7.6Y-2.99
X7.7Y-2.6
X7.7Y-2.7
X7.7Y-2.79
X7.7Y-2.9
X7.71Y-2.99
X7.79Y-2.9
X7.8Y-2.6
X7.8Y-2.7
X7.8Y-2.79
X7.81Y-2.99
X7.87Y-2.27
X7.88Y-2.08
X7.88Y-2.17
X7.9Y-2.6
X7.9Y-2.7
X7.9Y-2.9
X7.91Y-2.79
X7.91Y-3.0
X7.98Y-2.08
X7.99Y-1.86
X7.99Y-1.93
X7.99Y-2.17
X7.99Y-2.27
X8.0Y-2.59
X8.0Y-2.7
X8.0Y-2.8
X8.0Y-2.9
X8.01Y-3.0
X8.1Y-2.08
X8.11Y-2.17
X8.11Y-2.27
X8.12Y-3.63
X8.22Y-3.63
X8.23Y-2.72
X8.23Y-2.82
X8.23Y-2.93
X8.24Y-2.17
X8.24Y-2.27
X8.32Y-2.78
X8.32Y-2.88
X8.33Y-3.63
T2
X4.62Y-2.75
X4.72Y-2.85
X4.82Y-2.75
T3
X4.48Y-3.15
X4.48Y-3.45
X5.22Y-2.54
X5.22Y-2.84
X5.32Y-2.54
X5.32Y-2.84
X5.42Y-2.54
X5.42Y-2.84
X5.52Y-2.54
X5.52Y-2.84
X5.62Y-2.54
X5.62Y-2.84
X5.72Y-2.54
X5.72Y-2.84
X5.82Y-2.54
X5.82Y-2.84
X5.92Y-2.54
X5.92Y-2.84
T4
X4.25Y-2.76
X4.25Y-2.86
X4.25Y-2.96
X4.25Y-3.22
X4.25Y-3.32
X5.0924Y-3.0543
X5.1924Y-3.0543
X5.2924Y-3.0543
X5.3924Y-3.0543
X5.9925Y-3.4766
X6.0925Y-3.4766
X6.1925Y-3.4766
X6.2925Y-3.4766
X6.4Y-2.47
X6.4Y-3.17
X6.5Y-2.47
X6.5Y-3.17
X6.6Y-2.47
X6.6Y-3.17
X6.7Y-2.47
X6.7Y-3.17
X6.8Y-2.47
X6.8Y-3.17
X6.9Y-2.47
X6.9Y-3.17
X7.0Y-2.47
X7.0Y-3.17
X7.1Y-2.47
X7.1Y-3.17
X7.2Y-2.47
X7.2Y-3.17
X7.3Y-2.47
X7.3Y-3.17
X7.4Y-2.47
X7.4Y-3.17
X7.5Y-2.47
X7.5Y-3.17
X7.6Y-2.47
X7.6Y-3.17
X7.7Y-2.47
X7.7Y-3.17
X7.8Y-2.47
X7.8Y-3.17
X7.9Y-2.47
X7.9Y-3.17
X7.9116Y-3.4375
X7.9116Y-3.5375
X7.9116Y-3.6375
X7.9116Y-3.7375
X7.9116Y-3.8379
X7.9116Y-3.9375
X8.0Y-2.47
X8.0Y-3.17
X8.1Y-2.47
X8.1Y-3.17
X8.2Y-2.47
X8.2Y-3.17
X8.3Y-2.47
X8.3Y-3.17
T5
X4.26Y-2.39
X4.26Y-2.49
X4.6068Y-1.9391
X4.7068Y-1.9391
X4.8068Y-1.9391
X5.3442Y-1.934
X5.4442Y-1.934
X5.5442Y-1.934
X6.12Y-1.93
X6.22Y-1.93
X6.32Y-1.93
X6.89Y-1.93
X6.99Y-1.93
X7.09Y-1.93
X7.63Y-1.93
X7.73Y-1.93
X7.83Y-1.93
T6
X7.5368Y-2.2191
T7
X5.56Y-2.18
X6.63Y-2.18
M30
