%TF.GenerationSoftware,KiCad,Pcbnew,7.0.10*%
%TF.CreationDate,2024-03-26T13:20:54+05:30*%
%TF.ProjectId,PocketPCR,506f636b-6574-4504-9352-2e6b69636164,rev?*%
%TF.SameCoordinates,Original*%
%TF.FileFunction,Drillmap*%
%TF.FilePolarity,Positive*%
%FSLAX45Y45*%
G04 Gerber Fmt 4.5, Leading zero omitted, Abs format (unit mm)*
G04 Created by KiCad (PCBNEW 7.0.10) date 2024-03-26 13:20:54*
%MOMM*%
%LPD*%
G01*
G04 APERTURE LIST*
%ADD10C,0.100000*%
%ADD11C,0.200000*%
%ADD12C,0.300000*%
G04 APERTURE END LIST*
D10*
X8178800Y-5080000D02*
X17348200Y-5080000D01*
X17348200Y-12700000D01*
X8178800Y-12700000D01*
X8178800Y-5080000D01*
D11*
D12*
X8486000Y-5311000D02*
X8786000Y-5611000D01*
X8786000Y-5311000D02*
X8486000Y-5611000D01*
X8486000Y-12143600D02*
X8786000Y-12443600D01*
X8786000Y-12143600D02*
X8486000Y-12443600D01*
X16766400Y-12143600D02*
X17066400Y-12443600D01*
X17066400Y-12143600D02*
X16766400Y-12443600D01*
X16791800Y-5336400D02*
X17091800Y-5636400D01*
X17091800Y-5336400D02*
X16791800Y-5636400D01*
D11*
X8434577Y-13016484D02*
X8434577Y-12816484D01*
X8434577Y-12816484D02*
X8482196Y-12816484D01*
X8482196Y-12816484D02*
X8510767Y-12826008D01*
X8510767Y-12826008D02*
X8529815Y-12845055D01*
X8529815Y-12845055D02*
X8539339Y-12864103D01*
X8539339Y-12864103D02*
X8548863Y-12902198D01*
X8548863Y-12902198D02*
X8548863Y-12930769D01*
X8548863Y-12930769D02*
X8539339Y-12968865D01*
X8539339Y-12968865D02*
X8529815Y-12987912D01*
X8529815Y-12987912D02*
X8510767Y-13006960D01*
X8510767Y-13006960D02*
X8482196Y-13016484D01*
X8482196Y-13016484D02*
X8434577Y-13016484D01*
X8634577Y-13016484D02*
X8634577Y-12883150D01*
X8634577Y-12921246D02*
X8644101Y-12902198D01*
X8644101Y-12902198D02*
X8653624Y-12892674D01*
X8653624Y-12892674D02*
X8672672Y-12883150D01*
X8672672Y-12883150D02*
X8691720Y-12883150D01*
X8758386Y-13016484D02*
X8758386Y-12883150D01*
X8758386Y-12816484D02*
X8748863Y-12826008D01*
X8748863Y-12826008D02*
X8758386Y-12835531D01*
X8758386Y-12835531D02*
X8767910Y-12826008D01*
X8767910Y-12826008D02*
X8758386Y-12816484D01*
X8758386Y-12816484D02*
X8758386Y-12835531D01*
X8882196Y-13016484D02*
X8863148Y-13006960D01*
X8863148Y-13006960D02*
X8853624Y-12987912D01*
X8853624Y-12987912D02*
X8853624Y-12816484D01*
X8986958Y-13016484D02*
X8967910Y-13006960D01*
X8967910Y-13006960D02*
X8958386Y-12987912D01*
X8958386Y-12987912D02*
X8958386Y-12816484D01*
X9215529Y-13016484D02*
X9215529Y-12816484D01*
X9215529Y-12816484D02*
X9282196Y-12959341D01*
X9282196Y-12959341D02*
X9348863Y-12816484D01*
X9348863Y-12816484D02*
X9348863Y-13016484D01*
X9529815Y-13016484D02*
X9529815Y-12911722D01*
X9529815Y-12911722D02*
X9520291Y-12892674D01*
X9520291Y-12892674D02*
X9501244Y-12883150D01*
X9501244Y-12883150D02*
X9463148Y-12883150D01*
X9463148Y-12883150D02*
X9444101Y-12892674D01*
X9529815Y-13006960D02*
X9510767Y-13016484D01*
X9510767Y-13016484D02*
X9463148Y-13016484D01*
X9463148Y-13016484D02*
X9444101Y-13006960D01*
X9444101Y-13006960D02*
X9434577Y-12987912D01*
X9434577Y-12987912D02*
X9434577Y-12968865D01*
X9434577Y-12968865D02*
X9444101Y-12949817D01*
X9444101Y-12949817D02*
X9463148Y-12940293D01*
X9463148Y-12940293D02*
X9510767Y-12940293D01*
X9510767Y-12940293D02*
X9529815Y-12930769D01*
X9625053Y-12883150D02*
X9625053Y-13083150D01*
X9625053Y-12892674D02*
X9644101Y-12883150D01*
X9644101Y-12883150D02*
X9682196Y-12883150D01*
X9682196Y-12883150D02*
X9701244Y-12892674D01*
X9701244Y-12892674D02*
X9710767Y-12902198D01*
X9710767Y-12902198D02*
X9720291Y-12921246D01*
X9720291Y-12921246D02*
X9720291Y-12978388D01*
X9720291Y-12978388D02*
X9710767Y-12997436D01*
X9710767Y-12997436D02*
X9701244Y-13006960D01*
X9701244Y-13006960D02*
X9682196Y-13016484D01*
X9682196Y-13016484D02*
X9644101Y-13016484D01*
X9644101Y-13016484D02*
X9625053Y-13006960D01*
X9806005Y-12997436D02*
X9815529Y-13006960D01*
X9815529Y-13006960D02*
X9806005Y-13016484D01*
X9806005Y-13016484D02*
X9796482Y-13006960D01*
X9796482Y-13006960D02*
X9806005Y-12997436D01*
X9806005Y-12997436D02*
X9806005Y-13016484D01*
X9806005Y-12892674D02*
X9815529Y-12902198D01*
X9815529Y-12902198D02*
X9806005Y-12911722D01*
X9806005Y-12911722D02*
X9796482Y-12902198D01*
X9796482Y-12902198D02*
X9806005Y-12892674D01*
X9806005Y-12892674D02*
X9806005Y-12911722D01*
X7973800Y-13245000D02*
X8173800Y-13445000D01*
X8173800Y-13245000D02*
X7973800Y-13445000D01*
X8415529Y-13236484D02*
X8539339Y-13236484D01*
X8539339Y-13236484D02*
X8472672Y-13312674D01*
X8472672Y-13312674D02*
X8501244Y-13312674D01*
X8501244Y-13312674D02*
X8520291Y-13322198D01*
X8520291Y-13322198D02*
X8529815Y-13331722D01*
X8529815Y-13331722D02*
X8539339Y-13350769D01*
X8539339Y-13350769D02*
X8539339Y-13398388D01*
X8539339Y-13398388D02*
X8529815Y-13417436D01*
X8529815Y-13417436D02*
X8520291Y-13426960D01*
X8520291Y-13426960D02*
X8501244Y-13436484D01*
X8501244Y-13436484D02*
X8444101Y-13436484D01*
X8444101Y-13436484D02*
X8425053Y-13426960D01*
X8425053Y-13426960D02*
X8415529Y-13417436D01*
X8625053Y-13417436D02*
X8634577Y-13426960D01*
X8634577Y-13426960D02*
X8625053Y-13436484D01*
X8625053Y-13436484D02*
X8615529Y-13426960D01*
X8615529Y-13426960D02*
X8625053Y-13417436D01*
X8625053Y-13417436D02*
X8625053Y-13436484D01*
X8758386Y-13236484D02*
X8777434Y-13236484D01*
X8777434Y-13236484D02*
X8796482Y-13246008D01*
X8796482Y-13246008D02*
X8806005Y-13255531D01*
X8806005Y-13255531D02*
X8815529Y-13274579D01*
X8815529Y-13274579D02*
X8825053Y-13312674D01*
X8825053Y-13312674D02*
X8825053Y-13360293D01*
X8825053Y-13360293D02*
X8815529Y-13398388D01*
X8815529Y-13398388D02*
X8806005Y-13417436D01*
X8806005Y-13417436D02*
X8796482Y-13426960D01*
X8796482Y-13426960D02*
X8777434Y-13436484D01*
X8777434Y-13436484D02*
X8758386Y-13436484D01*
X8758386Y-13436484D02*
X8739339Y-13426960D01*
X8739339Y-13426960D02*
X8729815Y-13417436D01*
X8729815Y-13417436D02*
X8720291Y-13398388D01*
X8720291Y-13398388D02*
X8710767Y-13360293D01*
X8710767Y-13360293D02*
X8710767Y-13312674D01*
X8710767Y-13312674D02*
X8720291Y-13274579D01*
X8720291Y-13274579D02*
X8729815Y-13255531D01*
X8729815Y-13255531D02*
X8739339Y-13246008D01*
X8739339Y-13246008D02*
X8758386Y-13236484D01*
X8948863Y-13236484D02*
X8967910Y-13236484D01*
X8967910Y-13236484D02*
X8986958Y-13246008D01*
X8986958Y-13246008D02*
X8996482Y-13255531D01*
X8996482Y-13255531D02*
X9006005Y-13274579D01*
X9006005Y-13274579D02*
X9015529Y-13312674D01*
X9015529Y-13312674D02*
X9015529Y-13360293D01*
X9015529Y-13360293D02*
X9006005Y-13398388D01*
X9006005Y-13398388D02*
X8996482Y-13417436D01*
X8996482Y-13417436D02*
X8986958Y-13426960D01*
X8986958Y-13426960D02*
X8967910Y-13436484D01*
X8967910Y-13436484D02*
X8948863Y-13436484D01*
X8948863Y-13436484D02*
X8929815Y-13426960D01*
X8929815Y-13426960D02*
X8920291Y-13417436D01*
X8920291Y-13417436D02*
X8910767Y-13398388D01*
X8910767Y-13398388D02*
X8901244Y-13360293D01*
X8901244Y-13360293D02*
X8901244Y-13312674D01*
X8901244Y-13312674D02*
X8910767Y-13274579D01*
X8910767Y-13274579D02*
X8920291Y-13255531D01*
X8920291Y-13255531D02*
X8929815Y-13246008D01*
X8929815Y-13246008D02*
X8948863Y-13236484D01*
X9139339Y-13236484D02*
X9158386Y-13236484D01*
X9158386Y-13236484D02*
X9177434Y-13246008D01*
X9177434Y-13246008D02*
X9186958Y-13255531D01*
X9186958Y-13255531D02*
X9196482Y-13274579D01*
X9196482Y-13274579D02*
X9206005Y-13312674D01*
X9206005Y-13312674D02*
X9206005Y-13360293D01*
X9206005Y-13360293D02*
X9196482Y-13398388D01*
X9196482Y-13398388D02*
X9186958Y-13417436D01*
X9186958Y-13417436D02*
X9177434Y-13426960D01*
X9177434Y-13426960D02*
X9158386Y-13436484D01*
X9158386Y-13436484D02*
X9139339Y-13436484D01*
X9139339Y-13436484D02*
X9120291Y-13426960D01*
X9120291Y-13426960D02*
X9110767Y-13417436D01*
X9110767Y-13417436D02*
X9101244Y-13398388D01*
X9101244Y-13398388D02*
X9091720Y-13360293D01*
X9091720Y-13360293D02*
X9091720Y-13312674D01*
X9091720Y-13312674D02*
X9101244Y-13274579D01*
X9101244Y-13274579D02*
X9110767Y-13255531D01*
X9110767Y-13255531D02*
X9120291Y-13246008D01*
X9120291Y-13246008D02*
X9139339Y-13236484D01*
X9291720Y-13436484D02*
X9291720Y-13303150D01*
X9291720Y-13322198D02*
X9301244Y-13312674D01*
X9301244Y-13312674D02*
X9320291Y-13303150D01*
X9320291Y-13303150D02*
X9348863Y-13303150D01*
X9348863Y-13303150D02*
X9367910Y-13312674D01*
X9367910Y-13312674D02*
X9377434Y-13331722D01*
X9377434Y-13331722D02*
X9377434Y-13436484D01*
X9377434Y-13331722D02*
X9386958Y-13312674D01*
X9386958Y-13312674D02*
X9406005Y-13303150D01*
X9406005Y-13303150D02*
X9434577Y-13303150D01*
X9434577Y-13303150D02*
X9453625Y-13312674D01*
X9453625Y-13312674D02*
X9463148Y-13331722D01*
X9463148Y-13331722D02*
X9463148Y-13436484D01*
X9558386Y-13436484D02*
X9558386Y-13303150D01*
X9558386Y-13322198D02*
X9567910Y-13312674D01*
X9567910Y-13312674D02*
X9586958Y-13303150D01*
X9586958Y-13303150D02*
X9615529Y-13303150D01*
X9615529Y-13303150D02*
X9634577Y-13312674D01*
X9634577Y-13312674D02*
X9644101Y-13331722D01*
X9644101Y-13331722D02*
X9644101Y-13436484D01*
X9644101Y-13331722D02*
X9653625Y-13312674D01*
X9653625Y-13312674D02*
X9672672Y-13303150D01*
X9672672Y-13303150D02*
X9701244Y-13303150D01*
X9701244Y-13303150D02*
X9720291Y-13312674D01*
X9720291Y-13312674D02*
X9729815Y-13331722D01*
X9729815Y-13331722D02*
X9729815Y-13436484D01*
X10120291Y-13226960D02*
X9948863Y-13484103D01*
X10377434Y-13236484D02*
X10396482Y-13236484D01*
X10396482Y-13236484D02*
X10415529Y-13246008D01*
X10415529Y-13246008D02*
X10425053Y-13255531D01*
X10425053Y-13255531D02*
X10434577Y-13274579D01*
X10434577Y-13274579D02*
X10444101Y-13312674D01*
X10444101Y-13312674D02*
X10444101Y-13360293D01*
X10444101Y-13360293D02*
X10434577Y-13398388D01*
X10434577Y-13398388D02*
X10425053Y-13417436D01*
X10425053Y-13417436D02*
X10415529Y-13426960D01*
X10415529Y-13426960D02*
X10396482Y-13436484D01*
X10396482Y-13436484D02*
X10377434Y-13436484D01*
X10377434Y-13436484D02*
X10358387Y-13426960D01*
X10358387Y-13426960D02*
X10348863Y-13417436D01*
X10348863Y-13417436D02*
X10339339Y-13398388D01*
X10339339Y-13398388D02*
X10329815Y-13360293D01*
X10329815Y-13360293D02*
X10329815Y-13312674D01*
X10329815Y-13312674D02*
X10339339Y-13274579D01*
X10339339Y-13274579D02*
X10348863Y-13255531D01*
X10348863Y-13255531D02*
X10358387Y-13246008D01*
X10358387Y-13246008D02*
X10377434Y-13236484D01*
X10529815Y-13417436D02*
X10539339Y-13426960D01*
X10539339Y-13426960D02*
X10529815Y-13436484D01*
X10529815Y-13436484D02*
X10520291Y-13426960D01*
X10520291Y-13426960D02*
X10529815Y-13417436D01*
X10529815Y-13417436D02*
X10529815Y-13436484D01*
X10729815Y-13436484D02*
X10615529Y-13436484D01*
X10672672Y-13436484D02*
X10672672Y-13236484D01*
X10672672Y-13236484D02*
X10653625Y-13265055D01*
X10653625Y-13265055D02*
X10634577Y-13284103D01*
X10634577Y-13284103D02*
X10615529Y-13293627D01*
X10920291Y-13436484D02*
X10806006Y-13436484D01*
X10863148Y-13436484D02*
X10863148Y-13236484D01*
X10863148Y-13236484D02*
X10844101Y-13265055D01*
X10844101Y-13265055D02*
X10825053Y-13284103D01*
X10825053Y-13284103D02*
X10806006Y-13293627D01*
X11034577Y-13322198D02*
X11015529Y-13312674D01*
X11015529Y-13312674D02*
X11006006Y-13303150D01*
X11006006Y-13303150D02*
X10996482Y-13284103D01*
X10996482Y-13284103D02*
X10996482Y-13274579D01*
X10996482Y-13274579D02*
X11006006Y-13255531D01*
X11006006Y-13255531D02*
X11015529Y-13246008D01*
X11015529Y-13246008D02*
X11034577Y-13236484D01*
X11034577Y-13236484D02*
X11072672Y-13236484D01*
X11072672Y-13236484D02*
X11091720Y-13246008D01*
X11091720Y-13246008D02*
X11101244Y-13255531D01*
X11101244Y-13255531D02*
X11110768Y-13274579D01*
X11110768Y-13274579D02*
X11110768Y-13284103D01*
X11110768Y-13284103D02*
X11101244Y-13303150D01*
X11101244Y-13303150D02*
X11091720Y-13312674D01*
X11091720Y-13312674D02*
X11072672Y-13322198D01*
X11072672Y-13322198D02*
X11034577Y-13322198D01*
X11034577Y-13322198D02*
X11015529Y-13331722D01*
X11015529Y-13331722D02*
X11006006Y-13341246D01*
X11006006Y-13341246D02*
X10996482Y-13360293D01*
X10996482Y-13360293D02*
X10996482Y-13398388D01*
X10996482Y-13398388D02*
X11006006Y-13417436D01*
X11006006Y-13417436D02*
X11015529Y-13426960D01*
X11015529Y-13426960D02*
X11034577Y-13436484D01*
X11034577Y-13436484D02*
X11072672Y-13436484D01*
X11072672Y-13436484D02*
X11091720Y-13426960D01*
X11091720Y-13426960D02*
X11101244Y-13417436D01*
X11101244Y-13417436D02*
X11110768Y-13398388D01*
X11110768Y-13398388D02*
X11110768Y-13360293D01*
X11110768Y-13360293D02*
X11101244Y-13341246D01*
X11101244Y-13341246D02*
X11091720Y-13331722D01*
X11091720Y-13331722D02*
X11072672Y-13322198D01*
X11301244Y-13436484D02*
X11186958Y-13436484D01*
X11244101Y-13436484D02*
X11244101Y-13236484D01*
X11244101Y-13236484D02*
X11225053Y-13265055D01*
X11225053Y-13265055D02*
X11206006Y-13284103D01*
X11206006Y-13284103D02*
X11186958Y-13293627D01*
X11377434Y-13236484D02*
X11377434Y-13274579D01*
X11453625Y-13236484D02*
X11453625Y-13274579D01*
X11748863Y-13512674D02*
X11739339Y-13503150D01*
X11739339Y-13503150D02*
X11720291Y-13474579D01*
X11720291Y-13474579D02*
X11710768Y-13455531D01*
X11710768Y-13455531D02*
X11701244Y-13426960D01*
X11701244Y-13426960D02*
X11691720Y-13379341D01*
X11691720Y-13379341D02*
X11691720Y-13341246D01*
X11691720Y-13341246D02*
X11701244Y-13293627D01*
X11701244Y-13293627D02*
X11710768Y-13265055D01*
X11710768Y-13265055D02*
X11720291Y-13246008D01*
X11720291Y-13246008D02*
X11739339Y-13217436D01*
X11739339Y-13217436D02*
X11748863Y-13207912D01*
X11910768Y-13303150D02*
X11910768Y-13436484D01*
X11863148Y-13226960D02*
X11815529Y-13369817D01*
X11815529Y-13369817D02*
X11939339Y-13369817D01*
X12167910Y-13436484D02*
X12167910Y-13236484D01*
X12253625Y-13436484D02*
X12253625Y-13331722D01*
X12253625Y-13331722D02*
X12244101Y-13312674D01*
X12244101Y-13312674D02*
X12225053Y-13303150D01*
X12225053Y-13303150D02*
X12196482Y-13303150D01*
X12196482Y-13303150D02*
X12177434Y-13312674D01*
X12177434Y-13312674D02*
X12167910Y-13322198D01*
X12377434Y-13436484D02*
X12358387Y-13426960D01*
X12358387Y-13426960D02*
X12348863Y-13417436D01*
X12348863Y-13417436D02*
X12339339Y-13398388D01*
X12339339Y-13398388D02*
X12339339Y-13341246D01*
X12339339Y-13341246D02*
X12348863Y-13322198D01*
X12348863Y-13322198D02*
X12358387Y-13312674D01*
X12358387Y-13312674D02*
X12377434Y-13303150D01*
X12377434Y-13303150D02*
X12406006Y-13303150D01*
X12406006Y-13303150D02*
X12425053Y-13312674D01*
X12425053Y-13312674D02*
X12434577Y-13322198D01*
X12434577Y-13322198D02*
X12444101Y-13341246D01*
X12444101Y-13341246D02*
X12444101Y-13398388D01*
X12444101Y-13398388D02*
X12434577Y-13417436D01*
X12434577Y-13417436D02*
X12425053Y-13426960D01*
X12425053Y-13426960D02*
X12406006Y-13436484D01*
X12406006Y-13436484D02*
X12377434Y-13436484D01*
X12558387Y-13436484D02*
X12539339Y-13426960D01*
X12539339Y-13426960D02*
X12529815Y-13407912D01*
X12529815Y-13407912D02*
X12529815Y-13236484D01*
X12710768Y-13426960D02*
X12691720Y-13436484D01*
X12691720Y-13436484D02*
X12653625Y-13436484D01*
X12653625Y-13436484D02*
X12634577Y-13426960D01*
X12634577Y-13426960D02*
X12625053Y-13407912D01*
X12625053Y-13407912D02*
X12625053Y-13331722D01*
X12625053Y-13331722D02*
X12634577Y-13312674D01*
X12634577Y-13312674D02*
X12653625Y-13303150D01*
X12653625Y-13303150D02*
X12691720Y-13303150D01*
X12691720Y-13303150D02*
X12710768Y-13312674D01*
X12710768Y-13312674D02*
X12720291Y-13331722D01*
X12720291Y-13331722D02*
X12720291Y-13350769D01*
X12720291Y-13350769D02*
X12625053Y-13369817D01*
X12796482Y-13426960D02*
X12815530Y-13436484D01*
X12815530Y-13436484D02*
X12853625Y-13436484D01*
X12853625Y-13436484D02*
X12872672Y-13426960D01*
X12872672Y-13426960D02*
X12882196Y-13407912D01*
X12882196Y-13407912D02*
X12882196Y-13398388D01*
X12882196Y-13398388D02*
X12872672Y-13379341D01*
X12872672Y-13379341D02*
X12853625Y-13369817D01*
X12853625Y-13369817D02*
X12825053Y-13369817D01*
X12825053Y-13369817D02*
X12806006Y-13360293D01*
X12806006Y-13360293D02*
X12796482Y-13341246D01*
X12796482Y-13341246D02*
X12796482Y-13331722D01*
X12796482Y-13331722D02*
X12806006Y-13312674D01*
X12806006Y-13312674D02*
X12825053Y-13303150D01*
X12825053Y-13303150D02*
X12853625Y-13303150D01*
X12853625Y-13303150D02*
X12872672Y-13312674D01*
X12948863Y-13512674D02*
X12958387Y-13503150D01*
X12958387Y-13503150D02*
X12977434Y-13474579D01*
X12977434Y-13474579D02*
X12986958Y-13455531D01*
X12986958Y-13455531D02*
X12996482Y-13426960D01*
X12996482Y-13426960D02*
X13006006Y-13379341D01*
X13006006Y-13379341D02*
X13006006Y-13341246D01*
X13006006Y-13341246D02*
X12996482Y-13293627D01*
X12996482Y-13293627D02*
X12986958Y-13265055D01*
X12986958Y-13265055D02*
X12977434Y-13246008D01*
X12977434Y-13246008D02*
X12958387Y-13217436D01*
X12958387Y-13217436D02*
X12948863Y-13207912D01*
X13310768Y-13512674D02*
X13301244Y-13503150D01*
X13301244Y-13503150D02*
X13282196Y-13474579D01*
X13282196Y-13474579D02*
X13272672Y-13455531D01*
X13272672Y-13455531D02*
X13263149Y-13426960D01*
X13263149Y-13426960D02*
X13253625Y-13379341D01*
X13253625Y-13379341D02*
X13253625Y-13341246D01*
X13253625Y-13341246D02*
X13263149Y-13293627D01*
X13263149Y-13293627D02*
X13272672Y-13265055D01*
X13272672Y-13265055D02*
X13282196Y-13246008D01*
X13282196Y-13246008D02*
X13301244Y-13217436D01*
X13301244Y-13217436D02*
X13310768Y-13207912D01*
X13386958Y-13303150D02*
X13386958Y-13436484D01*
X13386958Y-13322198D02*
X13396482Y-13312674D01*
X13396482Y-13312674D02*
X13415530Y-13303150D01*
X13415530Y-13303150D02*
X13444101Y-13303150D01*
X13444101Y-13303150D02*
X13463149Y-13312674D01*
X13463149Y-13312674D02*
X13472672Y-13331722D01*
X13472672Y-13331722D02*
X13472672Y-13436484D01*
X13596482Y-13436484D02*
X13577434Y-13426960D01*
X13577434Y-13426960D02*
X13567911Y-13417436D01*
X13567911Y-13417436D02*
X13558387Y-13398388D01*
X13558387Y-13398388D02*
X13558387Y-13341246D01*
X13558387Y-13341246D02*
X13567911Y-13322198D01*
X13567911Y-13322198D02*
X13577434Y-13312674D01*
X13577434Y-13312674D02*
X13596482Y-13303150D01*
X13596482Y-13303150D02*
X13625053Y-13303150D01*
X13625053Y-13303150D02*
X13644101Y-13312674D01*
X13644101Y-13312674D02*
X13653625Y-13322198D01*
X13653625Y-13322198D02*
X13663149Y-13341246D01*
X13663149Y-13341246D02*
X13663149Y-13398388D01*
X13663149Y-13398388D02*
X13653625Y-13417436D01*
X13653625Y-13417436D02*
X13644101Y-13426960D01*
X13644101Y-13426960D02*
X13625053Y-13436484D01*
X13625053Y-13436484D02*
X13596482Y-13436484D01*
X13720292Y-13303150D02*
X13796482Y-13303150D01*
X13748863Y-13236484D02*
X13748863Y-13407912D01*
X13748863Y-13407912D02*
X13758387Y-13426960D01*
X13758387Y-13426960D02*
X13777434Y-13436484D01*
X13777434Y-13436484D02*
X13796482Y-13436484D01*
X14015530Y-13303150D02*
X14015530Y-13503150D01*
X14015530Y-13312674D02*
X14034577Y-13303150D01*
X14034577Y-13303150D02*
X14072673Y-13303150D01*
X14072673Y-13303150D02*
X14091720Y-13312674D01*
X14091720Y-13312674D02*
X14101244Y-13322198D01*
X14101244Y-13322198D02*
X14110768Y-13341246D01*
X14110768Y-13341246D02*
X14110768Y-13398388D01*
X14110768Y-13398388D02*
X14101244Y-13417436D01*
X14101244Y-13417436D02*
X14091720Y-13426960D01*
X14091720Y-13426960D02*
X14072673Y-13436484D01*
X14072673Y-13436484D02*
X14034577Y-13436484D01*
X14034577Y-13436484D02*
X14015530Y-13426960D01*
X14225053Y-13436484D02*
X14206006Y-13426960D01*
X14206006Y-13426960D02*
X14196482Y-13407912D01*
X14196482Y-13407912D02*
X14196482Y-13236484D01*
X14386958Y-13436484D02*
X14386958Y-13331722D01*
X14386958Y-13331722D02*
X14377434Y-13312674D01*
X14377434Y-13312674D02*
X14358387Y-13303150D01*
X14358387Y-13303150D02*
X14320292Y-13303150D01*
X14320292Y-13303150D02*
X14301244Y-13312674D01*
X14386958Y-13426960D02*
X14367911Y-13436484D01*
X14367911Y-13436484D02*
X14320292Y-13436484D01*
X14320292Y-13436484D02*
X14301244Y-13426960D01*
X14301244Y-13426960D02*
X14291720Y-13407912D01*
X14291720Y-13407912D02*
X14291720Y-13388865D01*
X14291720Y-13388865D02*
X14301244Y-13369817D01*
X14301244Y-13369817D02*
X14320292Y-13360293D01*
X14320292Y-13360293D02*
X14367911Y-13360293D01*
X14367911Y-13360293D02*
X14386958Y-13350769D01*
X14453625Y-13303150D02*
X14529815Y-13303150D01*
X14482196Y-13236484D02*
X14482196Y-13407912D01*
X14482196Y-13407912D02*
X14491720Y-13426960D01*
X14491720Y-13426960D02*
X14510768Y-13436484D01*
X14510768Y-13436484D02*
X14529815Y-13436484D01*
X14672673Y-13426960D02*
X14653625Y-13436484D01*
X14653625Y-13436484D02*
X14615530Y-13436484D01*
X14615530Y-13436484D02*
X14596482Y-13426960D01*
X14596482Y-13426960D02*
X14586958Y-13407912D01*
X14586958Y-13407912D02*
X14586958Y-13331722D01*
X14586958Y-13331722D02*
X14596482Y-13312674D01*
X14596482Y-13312674D02*
X14615530Y-13303150D01*
X14615530Y-13303150D02*
X14653625Y-13303150D01*
X14653625Y-13303150D02*
X14672673Y-13312674D01*
X14672673Y-13312674D02*
X14682196Y-13331722D01*
X14682196Y-13331722D02*
X14682196Y-13350769D01*
X14682196Y-13350769D02*
X14586958Y-13369817D01*
X14853625Y-13436484D02*
X14853625Y-13236484D01*
X14853625Y-13426960D02*
X14834577Y-13436484D01*
X14834577Y-13436484D02*
X14796482Y-13436484D01*
X14796482Y-13436484D02*
X14777434Y-13426960D01*
X14777434Y-13426960D02*
X14767911Y-13417436D01*
X14767911Y-13417436D02*
X14758387Y-13398388D01*
X14758387Y-13398388D02*
X14758387Y-13341246D01*
X14758387Y-13341246D02*
X14767911Y-13322198D01*
X14767911Y-13322198D02*
X14777434Y-13312674D01*
X14777434Y-13312674D02*
X14796482Y-13303150D01*
X14796482Y-13303150D02*
X14834577Y-13303150D01*
X14834577Y-13303150D02*
X14853625Y-13312674D01*
X14929815Y-13512674D02*
X14939339Y-13503150D01*
X14939339Y-13503150D02*
X14958387Y-13474579D01*
X14958387Y-13474579D02*
X14967911Y-13455531D01*
X14967911Y-13455531D02*
X14977434Y-13426960D01*
X14977434Y-13426960D02*
X14986958Y-13379341D01*
X14986958Y-13379341D02*
X14986958Y-13341246D01*
X14986958Y-13341246D02*
X14977434Y-13293627D01*
X14977434Y-13293627D02*
X14967911Y-13265055D01*
X14967911Y-13265055D02*
X14958387Y-13246008D01*
X14958387Y-13246008D02*
X14939339Y-13217436D01*
X14939339Y-13217436D02*
X14929815Y-13207912D01*
M02*
