%TF.GenerationSoftware,KiCad,Pcbnew,7.0.10*%
%TF.CreationDate,2024-03-26T13:20:44+05:30*%
%TF.ProjectId,PocketPCR,506f636b-6574-4504-9352-2e6b69636164,rev?*%
%TF.SameCoordinates,Original*%
%TF.FileFunction,Legend,Bot*%
%TF.FilePolarity,Positive*%
%FSLAX46Y46*%
G04 Gerber Fmt 4.6, Leading zero omitted, Abs format (unit mm)*
G04 Created by KiCad (PCBNEW 7.0.10) date 2024-03-26 13:20:44*
%MOMM*%
%LPD*%
G01*
G04 APERTURE LIST*
%ADD10C,0.150000*%
G04 APERTURE END LIST*
D10*
X86214009Y-110442476D02*
X86214009Y-110109143D01*
X86737819Y-110109143D02*
X85737819Y-110109143D01*
X85737819Y-110109143D02*
X85737819Y-110585333D01*
X86452104Y-110918667D02*
X86452104Y-111394857D01*
X86737819Y-110823429D02*
X85737819Y-111156762D01*
X85737819Y-111156762D02*
X86737819Y-111490095D01*
X86737819Y-111823429D02*
X85737819Y-111823429D01*
X85737819Y-111823429D02*
X86737819Y-112394857D01*
X86737819Y-112394857D02*
X85737819Y-112394857D01*
X85213819Y-95837428D02*
X85213819Y-95361238D01*
X85213819Y-95361238D02*
X84213819Y-95361238D01*
X85213819Y-96170762D02*
X84213819Y-96170762D01*
X85213819Y-96646952D02*
X84213819Y-96646952D01*
X84213819Y-96646952D02*
X84213819Y-96885047D01*
X84213819Y-96885047D02*
X84261438Y-97027904D01*
X84261438Y-97027904D02*
X84356676Y-97123142D01*
X84356676Y-97123142D02*
X84451914Y-97170761D01*
X84451914Y-97170761D02*
X84642390Y-97218380D01*
X84642390Y-97218380D02*
X84785247Y-97218380D01*
X84785247Y-97218380D02*
X84975723Y-97170761D01*
X84975723Y-97170761D02*
X85070961Y-97123142D01*
X85070961Y-97123142D02*
X85166200Y-97027904D01*
X85166200Y-97027904D02*
X85213819Y-96885047D01*
X85213819Y-96885047D02*
X85213819Y-96646952D01*
X84436009Y-83994857D02*
X84483628Y-84137714D01*
X84483628Y-84137714D02*
X84531247Y-84185333D01*
X84531247Y-84185333D02*
X84626485Y-84232952D01*
X84626485Y-84232952D02*
X84769342Y-84232952D01*
X84769342Y-84232952D02*
X84864580Y-84185333D01*
X84864580Y-84185333D02*
X84912200Y-84137714D01*
X84912200Y-84137714D02*
X84959819Y-84042476D01*
X84959819Y-84042476D02*
X84959819Y-83661524D01*
X84959819Y-83661524D02*
X83959819Y-83661524D01*
X83959819Y-83661524D02*
X83959819Y-83994857D01*
X83959819Y-83994857D02*
X84007438Y-84090095D01*
X84007438Y-84090095D02*
X84055057Y-84137714D01*
X84055057Y-84137714D02*
X84150295Y-84185333D01*
X84150295Y-84185333D02*
X84245533Y-84185333D01*
X84245533Y-84185333D02*
X84340771Y-84137714D01*
X84340771Y-84137714D02*
X84388390Y-84090095D01*
X84388390Y-84090095D02*
X84436009Y-83994857D01*
X84436009Y-83994857D02*
X84436009Y-83661524D01*
X84959819Y-85137714D02*
X84959819Y-84661524D01*
X84959819Y-84661524D02*
X83959819Y-84661524D01*
X83959819Y-85661524D02*
X83959819Y-85852000D01*
X83959819Y-85852000D02*
X84007438Y-85947238D01*
X84007438Y-85947238D02*
X84102676Y-86042476D01*
X84102676Y-86042476D02*
X84293152Y-86090095D01*
X84293152Y-86090095D02*
X84626485Y-86090095D01*
X84626485Y-86090095D02*
X84816961Y-86042476D01*
X84816961Y-86042476D02*
X84912200Y-85947238D01*
X84912200Y-85947238D02*
X84959819Y-85852000D01*
X84959819Y-85852000D02*
X84959819Y-85661524D01*
X84959819Y-85661524D02*
X84912200Y-85566286D01*
X84912200Y-85566286D02*
X84816961Y-85471048D01*
X84816961Y-85471048D02*
X84626485Y-85423429D01*
X84626485Y-85423429D02*
X84293152Y-85423429D01*
X84293152Y-85423429D02*
X84102676Y-85471048D01*
X84102676Y-85471048D02*
X84007438Y-85566286D01*
X84007438Y-85566286D02*
X83959819Y-85661524D01*
X84864580Y-87090095D02*
X84912200Y-87042476D01*
X84912200Y-87042476D02*
X84959819Y-86899619D01*
X84959819Y-86899619D02*
X84959819Y-86804381D01*
X84959819Y-86804381D02*
X84912200Y-86661524D01*
X84912200Y-86661524D02*
X84816961Y-86566286D01*
X84816961Y-86566286D02*
X84721723Y-86518667D01*
X84721723Y-86518667D02*
X84531247Y-86471048D01*
X84531247Y-86471048D02*
X84388390Y-86471048D01*
X84388390Y-86471048D02*
X84197914Y-86518667D01*
X84197914Y-86518667D02*
X84102676Y-86566286D01*
X84102676Y-86566286D02*
X84007438Y-86661524D01*
X84007438Y-86661524D02*
X83959819Y-86804381D01*
X83959819Y-86804381D02*
X83959819Y-86899619D01*
X83959819Y-86899619D02*
X84007438Y-87042476D01*
X84007438Y-87042476D02*
X84055057Y-87090095D01*
X84959819Y-87518667D02*
X83959819Y-87518667D01*
X84959819Y-88090095D02*
X84388390Y-87661524D01*
X83959819Y-88090095D02*
X84531247Y-87518667D01*
X84451819Y-72493524D02*
X83451819Y-72493524D01*
X83451819Y-72493524D02*
X83451819Y-72874476D01*
X83451819Y-72874476D02*
X83499438Y-72969714D01*
X83499438Y-72969714D02*
X83547057Y-73017333D01*
X83547057Y-73017333D02*
X83642295Y-73064952D01*
X83642295Y-73064952D02*
X83785152Y-73064952D01*
X83785152Y-73064952D02*
X83880390Y-73017333D01*
X83880390Y-73017333D02*
X83928009Y-72969714D01*
X83928009Y-72969714D02*
X83975628Y-72874476D01*
X83975628Y-72874476D02*
X83975628Y-72493524D01*
X83928009Y-73493524D02*
X83928009Y-73826857D01*
X84451819Y-73969714D02*
X84451819Y-73493524D01*
X84451819Y-73493524D02*
X83451819Y-73493524D01*
X83451819Y-73493524D02*
X83451819Y-73969714D01*
X84451819Y-74874476D02*
X84451819Y-74398286D01*
X84451819Y-74398286D02*
X83451819Y-74398286D01*
X83451819Y-75064953D02*
X83451819Y-75636381D01*
X84451819Y-75350667D02*
X83451819Y-75350667D01*
X84451819Y-75969715D02*
X83451819Y-75969715D01*
X83928009Y-76445905D02*
X83928009Y-76779238D01*
X84451819Y-76922095D02*
X84451819Y-76445905D01*
X84451819Y-76445905D02*
X83451819Y-76445905D01*
X83451819Y-76445905D02*
X83451819Y-76922095D01*
X84451819Y-77922095D02*
X83975628Y-77588762D01*
X84451819Y-77350667D02*
X83451819Y-77350667D01*
X83451819Y-77350667D02*
X83451819Y-77731619D01*
X83451819Y-77731619D02*
X83499438Y-77826857D01*
X83499438Y-77826857D02*
X83547057Y-77874476D01*
X83547057Y-77874476D02*
X83642295Y-77922095D01*
X83642295Y-77922095D02*
X83785152Y-77922095D01*
X83785152Y-77922095D02*
X83880390Y-77874476D01*
X83880390Y-77874476D02*
X83928009Y-77826857D01*
X83928009Y-77826857D02*
X83975628Y-77731619D01*
X83975628Y-77731619D02*
X83975628Y-77350667D01*
X136485094Y-102448819D02*
X136485094Y-101448819D01*
X136485094Y-101925009D02*
X135913666Y-101925009D01*
X135913666Y-102448819D02*
X135913666Y-101448819D01*
X134866047Y-102353580D02*
X134913666Y-102401200D01*
X134913666Y-102401200D02*
X135056523Y-102448819D01*
X135056523Y-102448819D02*
X135151761Y-102448819D01*
X135151761Y-102448819D02*
X135294618Y-102401200D01*
X135294618Y-102401200D02*
X135389856Y-102305961D01*
X135389856Y-102305961D02*
X135437475Y-102210723D01*
X135437475Y-102210723D02*
X135485094Y-102020247D01*
X135485094Y-102020247D02*
X135485094Y-101877390D01*
X135485094Y-101877390D02*
X135437475Y-101686914D01*
X135437475Y-101686914D02*
X135389856Y-101591676D01*
X135389856Y-101591676D02*
X135294618Y-101496438D01*
X135294618Y-101496438D02*
X135151761Y-101448819D01*
X135151761Y-101448819D02*
X135056523Y-101448819D01*
X135056523Y-101448819D02*
X134913666Y-101496438D01*
X134913666Y-101496438D02*
X134866047Y-101544057D01*
X134246999Y-101448819D02*
X134151761Y-101448819D01*
X134151761Y-101448819D02*
X134056523Y-101496438D01*
X134056523Y-101496438D02*
X134008904Y-101544057D01*
X134008904Y-101544057D02*
X133961285Y-101639295D01*
X133961285Y-101639295D02*
X133913666Y-101829771D01*
X133913666Y-101829771D02*
X133913666Y-102067866D01*
X133913666Y-102067866D02*
X133961285Y-102258342D01*
X133961285Y-102258342D02*
X134008904Y-102353580D01*
X134008904Y-102353580D02*
X134056523Y-102401200D01*
X134056523Y-102401200D02*
X134151761Y-102448819D01*
X134151761Y-102448819D02*
X134246999Y-102448819D01*
X134246999Y-102448819D02*
X134342237Y-102401200D01*
X134342237Y-102401200D02*
X134389856Y-102353580D01*
X134389856Y-102353580D02*
X134437475Y-102258342D01*
X134437475Y-102258342D02*
X134485094Y-102067866D01*
X134485094Y-102067866D02*
X134485094Y-101829771D01*
X134485094Y-101829771D02*
X134437475Y-101639295D01*
X134437475Y-101639295D02*
X134389856Y-101544057D01*
X134389856Y-101544057D02*
X134342237Y-101496438D01*
X134342237Y-101496438D02*
X134246999Y-101448819D01*
X133008904Y-101448819D02*
X133485094Y-101448819D01*
X133485094Y-101448819D02*
X133532713Y-101925009D01*
X133532713Y-101925009D02*
X133485094Y-101877390D01*
X133485094Y-101877390D02*
X133389856Y-101829771D01*
X133389856Y-101829771D02*
X133151761Y-101829771D01*
X133151761Y-101829771D02*
X133056523Y-101877390D01*
X133056523Y-101877390D02*
X133008904Y-101925009D01*
X133008904Y-101925009D02*
X132961285Y-102020247D01*
X132961285Y-102020247D02*
X132961285Y-102258342D01*
X132961285Y-102258342D02*
X133008904Y-102353580D01*
X133008904Y-102353580D02*
X133056523Y-102401200D01*
X133056523Y-102401200D02*
X133151761Y-102448819D01*
X133151761Y-102448819D02*
X133389856Y-102448819D01*
X133389856Y-102448819D02*
X133485094Y-102401200D01*
X133485094Y-102401200D02*
X133532713Y-102353580D01*
X126492000Y-100584000D02*
X143002000Y-100584000D01*
X143002000Y-106172000D01*
X126492000Y-106172000D01*
X126492000Y-100584000D01*
X159265475Y-54188819D02*
X159265475Y-53188819D01*
X158217857Y-54188819D02*
X158551190Y-53712628D01*
X158789285Y-54188819D02*
X158789285Y-53188819D01*
X158789285Y-53188819D02*
X158408333Y-53188819D01*
X158408333Y-53188819D02*
X158313095Y-53236438D01*
X158313095Y-53236438D02*
X158265476Y-53284057D01*
X158265476Y-53284057D02*
X158217857Y-53379295D01*
X158217857Y-53379295D02*
X158217857Y-53522152D01*
X158217857Y-53522152D02*
X158265476Y-53617390D01*
X158265476Y-53617390D02*
X158313095Y-53665009D01*
X158313095Y-53665009D02*
X158408333Y-53712628D01*
X158408333Y-53712628D02*
X158789285Y-53712628D01*
X157455952Y-53665009D02*
X157789285Y-53665009D01*
X157789285Y-54188819D02*
X157789285Y-53188819D01*
X157789285Y-53188819D02*
X157313095Y-53188819D01*
X156884523Y-54188819D02*
X156694047Y-54188819D01*
X156694047Y-54188819D02*
X156598809Y-54141200D01*
X156598809Y-54141200D02*
X156551190Y-54093580D01*
X156551190Y-54093580D02*
X156455952Y-53950723D01*
X156455952Y-53950723D02*
X156408333Y-53760247D01*
X156408333Y-53760247D02*
X156408333Y-53379295D01*
X156408333Y-53379295D02*
X156455952Y-53284057D01*
X156455952Y-53284057D02*
X156503571Y-53236438D01*
X156503571Y-53236438D02*
X156598809Y-53188819D01*
X156598809Y-53188819D02*
X156789285Y-53188819D01*
X156789285Y-53188819D02*
X156884523Y-53236438D01*
X156884523Y-53236438D02*
X156932142Y-53284057D01*
X156932142Y-53284057D02*
X156979761Y-53379295D01*
X156979761Y-53379295D02*
X156979761Y-53617390D01*
X156979761Y-53617390D02*
X156932142Y-53712628D01*
X156932142Y-53712628D02*
X156884523Y-53760247D01*
X156884523Y-53760247D02*
X156789285Y-53807866D01*
X156789285Y-53807866D02*
X156598809Y-53807866D01*
X156598809Y-53807866D02*
X156503571Y-53760247D01*
X156503571Y-53760247D02*
X156455952Y-53712628D01*
X156455952Y-53712628D02*
X156408333Y-53617390D01*
X155503571Y-53188819D02*
X155979761Y-53188819D01*
X155979761Y-53188819D02*
X156027380Y-53665009D01*
X156027380Y-53665009D02*
X155979761Y-53617390D01*
X155979761Y-53617390D02*
X155884523Y-53569771D01*
X155884523Y-53569771D02*
X155646428Y-53569771D01*
X155646428Y-53569771D02*
X155551190Y-53617390D01*
X155551190Y-53617390D02*
X155503571Y-53665009D01*
X155503571Y-53665009D02*
X155455952Y-53760247D01*
X155455952Y-53760247D02*
X155455952Y-53998342D01*
X155455952Y-53998342D02*
X155503571Y-54093580D01*
X155503571Y-54093580D02*
X155551190Y-54141200D01*
X155551190Y-54141200D02*
X155646428Y-54188819D01*
X155646428Y-54188819D02*
X155884523Y-54188819D01*
X155884523Y-54188819D02*
X155979761Y-54141200D01*
X155979761Y-54141200D02*
X156027380Y-54093580D01*
X154598809Y-53522152D02*
X154598809Y-54188819D01*
X154836904Y-53141200D02*
X155074999Y-53855485D01*
X155074999Y-53855485D02*
X154455952Y-53855485D01*
X153884523Y-53188819D02*
X153789285Y-53188819D01*
X153789285Y-53188819D02*
X153694047Y-53236438D01*
X153694047Y-53236438D02*
X153646428Y-53284057D01*
X153646428Y-53284057D02*
X153598809Y-53379295D01*
X153598809Y-53379295D02*
X153551190Y-53569771D01*
X153551190Y-53569771D02*
X153551190Y-53807866D01*
X153551190Y-53807866D02*
X153598809Y-53998342D01*
X153598809Y-53998342D02*
X153646428Y-54093580D01*
X153646428Y-54093580D02*
X153694047Y-54141200D01*
X153694047Y-54141200D02*
X153789285Y-54188819D01*
X153789285Y-54188819D02*
X153884523Y-54188819D01*
X153884523Y-54188819D02*
X153979761Y-54141200D01*
X153979761Y-54141200D02*
X154027380Y-54093580D01*
X154027380Y-54093580D02*
X154074999Y-53998342D01*
X154074999Y-53998342D02*
X154122618Y-53807866D01*
X154122618Y-53807866D02*
X154122618Y-53569771D01*
X154122618Y-53569771D02*
X154074999Y-53379295D01*
X154074999Y-53379295D02*
X154027380Y-53284057D01*
X154027380Y-53284057D02*
X153979761Y-53236438D01*
X153979761Y-53236438D02*
X153884523Y-53188819D01*
X153360714Y-54284057D02*
X152598809Y-54284057D01*
X151836904Y-54188819D02*
X152408332Y-54188819D01*
X152122618Y-54188819D02*
X152122618Y-53188819D01*
X152122618Y-53188819D02*
X152217856Y-53331676D01*
X152217856Y-53331676D02*
X152313094Y-53426914D01*
X152313094Y-53426914D02*
X152408332Y-53474533D01*
X147574000Y-52324000D02*
X163576000Y-52324000D01*
X163576000Y-69342000D01*
X147574000Y-69342000D01*
X147574000Y-52324000D01*
X114916220Y-120736819D02*
X114916220Y-119736819D01*
X114916220Y-119736819D02*
X114535268Y-119736819D01*
X114535268Y-119736819D02*
X114440030Y-119784438D01*
X114440030Y-119784438D02*
X114392411Y-119832057D01*
X114392411Y-119832057D02*
X114344792Y-119927295D01*
X114344792Y-119927295D02*
X114344792Y-120070152D01*
X114344792Y-120070152D02*
X114392411Y-120165390D01*
X114392411Y-120165390D02*
X114440030Y-120213009D01*
X114440030Y-120213009D02*
X114535268Y-120260628D01*
X114535268Y-120260628D02*
X114916220Y-120260628D01*
X113725744Y-119736819D02*
X113535268Y-119736819D01*
X113535268Y-119736819D02*
X113440030Y-119784438D01*
X113440030Y-119784438D02*
X113344792Y-119879676D01*
X113344792Y-119879676D02*
X113297173Y-120070152D01*
X113297173Y-120070152D02*
X113297173Y-120403485D01*
X113297173Y-120403485D02*
X113344792Y-120593961D01*
X113344792Y-120593961D02*
X113440030Y-120689200D01*
X113440030Y-120689200D02*
X113535268Y-120736819D01*
X113535268Y-120736819D02*
X113725744Y-120736819D01*
X113725744Y-120736819D02*
X113820982Y-120689200D01*
X113820982Y-120689200D02*
X113916220Y-120593961D01*
X113916220Y-120593961D02*
X113963839Y-120403485D01*
X113963839Y-120403485D02*
X113963839Y-120070152D01*
X113963839Y-120070152D02*
X113916220Y-119879676D01*
X113916220Y-119879676D02*
X113820982Y-119784438D01*
X113820982Y-119784438D02*
X113725744Y-119736819D01*
X112297173Y-120641580D02*
X112344792Y-120689200D01*
X112344792Y-120689200D02*
X112487649Y-120736819D01*
X112487649Y-120736819D02*
X112582887Y-120736819D01*
X112582887Y-120736819D02*
X112725744Y-120689200D01*
X112725744Y-120689200D02*
X112820982Y-120593961D01*
X112820982Y-120593961D02*
X112868601Y-120498723D01*
X112868601Y-120498723D02*
X112916220Y-120308247D01*
X112916220Y-120308247D02*
X112916220Y-120165390D01*
X112916220Y-120165390D02*
X112868601Y-119974914D01*
X112868601Y-119974914D02*
X112820982Y-119879676D01*
X112820982Y-119879676D02*
X112725744Y-119784438D01*
X112725744Y-119784438D02*
X112582887Y-119736819D01*
X112582887Y-119736819D02*
X112487649Y-119736819D01*
X112487649Y-119736819D02*
X112344792Y-119784438D01*
X112344792Y-119784438D02*
X112297173Y-119832057D01*
X111868601Y-120736819D02*
X111868601Y-119736819D01*
X111297173Y-120736819D02*
X111725744Y-120165390D01*
X111297173Y-119736819D02*
X111868601Y-120308247D01*
X110868601Y-120213009D02*
X110535268Y-120213009D01*
X110392411Y-120736819D02*
X110868601Y-120736819D01*
X110868601Y-120736819D02*
X110868601Y-119736819D01*
X110868601Y-119736819D02*
X110392411Y-119736819D01*
X110106696Y-119736819D02*
X109535268Y-119736819D01*
X109820982Y-120736819D02*
X109820982Y-119736819D01*
X108440029Y-120736819D02*
X108440029Y-119736819D01*
X108440029Y-119736819D02*
X108059077Y-119736819D01*
X108059077Y-119736819D02*
X107963839Y-119784438D01*
X107963839Y-119784438D02*
X107916220Y-119832057D01*
X107916220Y-119832057D02*
X107868601Y-119927295D01*
X107868601Y-119927295D02*
X107868601Y-120070152D01*
X107868601Y-120070152D02*
X107916220Y-120165390D01*
X107916220Y-120165390D02*
X107963839Y-120213009D01*
X107963839Y-120213009D02*
X108059077Y-120260628D01*
X108059077Y-120260628D02*
X108440029Y-120260628D01*
X106868601Y-120641580D02*
X106916220Y-120689200D01*
X106916220Y-120689200D02*
X107059077Y-120736819D01*
X107059077Y-120736819D02*
X107154315Y-120736819D01*
X107154315Y-120736819D02*
X107297172Y-120689200D01*
X107297172Y-120689200D02*
X107392410Y-120593961D01*
X107392410Y-120593961D02*
X107440029Y-120498723D01*
X107440029Y-120498723D02*
X107487648Y-120308247D01*
X107487648Y-120308247D02*
X107487648Y-120165390D01*
X107487648Y-120165390D02*
X107440029Y-119974914D01*
X107440029Y-119974914D02*
X107392410Y-119879676D01*
X107392410Y-119879676D02*
X107297172Y-119784438D01*
X107297172Y-119784438D02*
X107154315Y-119736819D01*
X107154315Y-119736819D02*
X107059077Y-119736819D01*
X107059077Y-119736819D02*
X106916220Y-119784438D01*
X106916220Y-119784438D02*
X106868601Y-119832057D01*
X105868601Y-120736819D02*
X106201934Y-120260628D01*
X106440029Y-120736819D02*
X106440029Y-119736819D01*
X106440029Y-119736819D02*
X106059077Y-119736819D01*
X106059077Y-119736819D02*
X105963839Y-119784438D01*
X105963839Y-119784438D02*
X105916220Y-119832057D01*
X105916220Y-119832057D02*
X105868601Y-119927295D01*
X105868601Y-119927295D02*
X105868601Y-120070152D01*
X105868601Y-120070152D02*
X105916220Y-120165390D01*
X105916220Y-120165390D02*
X105963839Y-120213009D01*
X105963839Y-120213009D02*
X106059077Y-120260628D01*
X106059077Y-120260628D02*
X106440029Y-120260628D01*
X115059077Y-121346819D02*
X114487649Y-121346819D01*
X114773363Y-122346819D02*
X114773363Y-121346819D01*
X114154315Y-121346819D02*
X114154315Y-122156342D01*
X114154315Y-122156342D02*
X114106696Y-122251580D01*
X114106696Y-122251580D02*
X114059077Y-122299200D01*
X114059077Y-122299200D02*
X113963839Y-122346819D01*
X113963839Y-122346819D02*
X113773363Y-122346819D01*
X113773363Y-122346819D02*
X113678125Y-122299200D01*
X113678125Y-122299200D02*
X113630506Y-122251580D01*
X113630506Y-122251580D02*
X113582887Y-122156342D01*
X113582887Y-122156342D02*
X113582887Y-121346819D01*
X113106696Y-121823009D02*
X112773363Y-121823009D01*
X112630506Y-122346819D02*
X113106696Y-122346819D01*
X113106696Y-122346819D02*
X113106696Y-121346819D01*
X113106696Y-121346819D02*
X112630506Y-121346819D01*
X112201934Y-121965866D02*
X111440030Y-121965866D01*
X110440030Y-122346819D02*
X111011458Y-122346819D01*
X110725744Y-122346819D02*
X110725744Y-121346819D01*
X110725744Y-121346819D02*
X110820982Y-121489676D01*
X110820982Y-121489676D02*
X110916220Y-121584914D01*
X110916220Y-121584914D02*
X111011458Y-121632533D01*
X109582887Y-121346819D02*
X109773363Y-121346819D01*
X109773363Y-121346819D02*
X109868601Y-121394438D01*
X109868601Y-121394438D02*
X109916220Y-121442057D01*
X109916220Y-121442057D02*
X110011458Y-121584914D01*
X110011458Y-121584914D02*
X110059077Y-121775390D01*
X110059077Y-121775390D02*
X110059077Y-122156342D01*
X110059077Y-122156342D02*
X110011458Y-122251580D01*
X110011458Y-122251580D02*
X109963839Y-122299200D01*
X109963839Y-122299200D02*
X109868601Y-122346819D01*
X109868601Y-122346819D02*
X109678125Y-122346819D01*
X109678125Y-122346819D02*
X109582887Y-122299200D01*
X109582887Y-122299200D02*
X109535268Y-122251580D01*
X109535268Y-122251580D02*
X109487649Y-122156342D01*
X109487649Y-122156342D02*
X109487649Y-121918247D01*
X109487649Y-121918247D02*
X109535268Y-121823009D01*
X109535268Y-121823009D02*
X109582887Y-121775390D01*
X109582887Y-121775390D02*
X109678125Y-121727771D01*
X109678125Y-121727771D02*
X109868601Y-121727771D01*
X109868601Y-121727771D02*
X109963839Y-121775390D01*
X109963839Y-121775390D02*
X110011458Y-121823009D01*
X110011458Y-121823009D02*
X110059077Y-121918247D01*
X103886000Y-118872000D02*
X116078000Y-118872000D01*
X116078000Y-123444000D01*
X103886000Y-123444000D01*
X103886000Y-118872000D01*
X120689285Y-53934819D02*
X120689285Y-52934819D01*
X119641667Y-53934819D02*
X119975000Y-53458628D01*
X120213095Y-53934819D02*
X120213095Y-52934819D01*
X120213095Y-52934819D02*
X119832143Y-52934819D01*
X119832143Y-52934819D02*
X119736905Y-52982438D01*
X119736905Y-52982438D02*
X119689286Y-53030057D01*
X119689286Y-53030057D02*
X119641667Y-53125295D01*
X119641667Y-53125295D02*
X119641667Y-53268152D01*
X119641667Y-53268152D02*
X119689286Y-53363390D01*
X119689286Y-53363390D02*
X119736905Y-53411009D01*
X119736905Y-53411009D02*
X119832143Y-53458628D01*
X119832143Y-53458628D02*
X120213095Y-53458628D01*
X118879762Y-53411009D02*
X119213095Y-53411009D01*
X119213095Y-53934819D02*
X119213095Y-52934819D01*
X119213095Y-52934819D02*
X118736905Y-52934819D01*
X117879762Y-52934819D02*
X118355952Y-52934819D01*
X118355952Y-52934819D02*
X118403571Y-53411009D01*
X118403571Y-53411009D02*
X118355952Y-53363390D01*
X118355952Y-53363390D02*
X118260714Y-53315771D01*
X118260714Y-53315771D02*
X118022619Y-53315771D01*
X118022619Y-53315771D02*
X117927381Y-53363390D01*
X117927381Y-53363390D02*
X117879762Y-53411009D01*
X117879762Y-53411009D02*
X117832143Y-53506247D01*
X117832143Y-53506247D02*
X117832143Y-53744342D01*
X117832143Y-53744342D02*
X117879762Y-53839580D01*
X117879762Y-53839580D02*
X117927381Y-53887200D01*
X117927381Y-53887200D02*
X118022619Y-53934819D01*
X118022619Y-53934819D02*
X118260714Y-53934819D01*
X118260714Y-53934819D02*
X118355952Y-53887200D01*
X118355952Y-53887200D02*
X118403571Y-53839580D01*
X116975000Y-53268152D02*
X116975000Y-53934819D01*
X117213095Y-52887200D02*
X117451190Y-53601485D01*
X117451190Y-53601485D02*
X116832143Y-53601485D01*
X116260714Y-52934819D02*
X116165476Y-52934819D01*
X116165476Y-52934819D02*
X116070238Y-52982438D01*
X116070238Y-52982438D02*
X116022619Y-53030057D01*
X116022619Y-53030057D02*
X115975000Y-53125295D01*
X115975000Y-53125295D02*
X115927381Y-53315771D01*
X115927381Y-53315771D02*
X115927381Y-53553866D01*
X115927381Y-53553866D02*
X115975000Y-53744342D01*
X115975000Y-53744342D02*
X116022619Y-53839580D01*
X116022619Y-53839580D02*
X116070238Y-53887200D01*
X116070238Y-53887200D02*
X116165476Y-53934819D01*
X116165476Y-53934819D02*
X116260714Y-53934819D01*
X116260714Y-53934819D02*
X116355952Y-53887200D01*
X116355952Y-53887200D02*
X116403571Y-53839580D01*
X116403571Y-53839580D02*
X116451190Y-53744342D01*
X116451190Y-53744342D02*
X116498809Y-53553866D01*
X116498809Y-53553866D02*
X116498809Y-53315771D01*
X116498809Y-53315771D02*
X116451190Y-53125295D01*
X116451190Y-53125295D02*
X116403571Y-53030057D01*
X116403571Y-53030057D02*
X116355952Y-52982438D01*
X116355952Y-52982438D02*
X116260714Y-52934819D01*
X115736905Y-54030057D02*
X114975000Y-54030057D01*
X114213095Y-53934819D02*
X114784523Y-53934819D01*
X114498809Y-53934819D02*
X114498809Y-52934819D01*
X114498809Y-52934819D02*
X114594047Y-53077676D01*
X114594047Y-53077676D02*
X114689285Y-53172914D01*
X114689285Y-53172914D02*
X114784523Y-53220533D01*
X109474000Y-52070000D02*
X125476000Y-52070000D01*
X125476000Y-69088000D01*
X109474000Y-69088000D01*
X109474000Y-52070000D01*
X135230856Y-117540819D02*
X135230856Y-118350342D01*
X135230856Y-118350342D02*
X135183237Y-118445580D01*
X135183237Y-118445580D02*
X135135618Y-118493200D01*
X135135618Y-118493200D02*
X135040380Y-118540819D01*
X135040380Y-118540819D02*
X134849904Y-118540819D01*
X134849904Y-118540819D02*
X134754666Y-118493200D01*
X134754666Y-118493200D02*
X134707047Y-118445580D01*
X134707047Y-118445580D02*
X134659428Y-118350342D01*
X134659428Y-118350342D02*
X134659428Y-117540819D01*
X134230856Y-118493200D02*
X134087999Y-118540819D01*
X134087999Y-118540819D02*
X133849904Y-118540819D01*
X133849904Y-118540819D02*
X133754666Y-118493200D01*
X133754666Y-118493200D02*
X133707047Y-118445580D01*
X133707047Y-118445580D02*
X133659428Y-118350342D01*
X133659428Y-118350342D02*
X133659428Y-118255104D01*
X133659428Y-118255104D02*
X133707047Y-118159866D01*
X133707047Y-118159866D02*
X133754666Y-118112247D01*
X133754666Y-118112247D02*
X133849904Y-118064628D01*
X133849904Y-118064628D02*
X134040380Y-118017009D01*
X134040380Y-118017009D02*
X134135618Y-117969390D01*
X134135618Y-117969390D02*
X134183237Y-117921771D01*
X134183237Y-117921771D02*
X134230856Y-117826533D01*
X134230856Y-117826533D02*
X134230856Y-117731295D01*
X134230856Y-117731295D02*
X134183237Y-117636057D01*
X134183237Y-117636057D02*
X134135618Y-117588438D01*
X134135618Y-117588438D02*
X134040380Y-117540819D01*
X134040380Y-117540819D02*
X133802285Y-117540819D01*
X133802285Y-117540819D02*
X133659428Y-117588438D01*
X132897523Y-118017009D02*
X132754666Y-118064628D01*
X132754666Y-118064628D02*
X132707047Y-118112247D01*
X132707047Y-118112247D02*
X132659428Y-118207485D01*
X132659428Y-118207485D02*
X132659428Y-118350342D01*
X132659428Y-118350342D02*
X132707047Y-118445580D01*
X132707047Y-118445580D02*
X132754666Y-118493200D01*
X132754666Y-118493200D02*
X132849904Y-118540819D01*
X132849904Y-118540819D02*
X133230856Y-118540819D01*
X133230856Y-118540819D02*
X133230856Y-117540819D01*
X133230856Y-117540819D02*
X132897523Y-117540819D01*
X132897523Y-117540819D02*
X132802285Y-117588438D01*
X132802285Y-117588438D02*
X132754666Y-117636057D01*
X132754666Y-117636057D02*
X132707047Y-117731295D01*
X132707047Y-117731295D02*
X132707047Y-117826533D01*
X132707047Y-117826533D02*
X132754666Y-117921771D01*
X132754666Y-117921771D02*
X132802285Y-117969390D01*
X132802285Y-117969390D02*
X132897523Y-118017009D01*
X132897523Y-118017009D02*
X133230856Y-118017009D01*
X131468951Y-118540819D02*
X131468951Y-117540819D01*
X131468951Y-117540819D02*
X131087999Y-117540819D01*
X131087999Y-117540819D02*
X130992761Y-117588438D01*
X130992761Y-117588438D02*
X130945142Y-117636057D01*
X130945142Y-117636057D02*
X130897523Y-117731295D01*
X130897523Y-117731295D02*
X130897523Y-117874152D01*
X130897523Y-117874152D02*
X130945142Y-117969390D01*
X130945142Y-117969390D02*
X130992761Y-118017009D01*
X130992761Y-118017009D02*
X131087999Y-118064628D01*
X131087999Y-118064628D02*
X131468951Y-118064628D01*
X130468951Y-118540819D02*
X130468951Y-117540819D01*
X130468951Y-117540819D02*
X130230856Y-117540819D01*
X130230856Y-117540819D02*
X130087999Y-117588438D01*
X130087999Y-117588438D02*
X129992761Y-117683676D01*
X129992761Y-117683676D02*
X129945142Y-117778914D01*
X129945142Y-117778914D02*
X129897523Y-117969390D01*
X129897523Y-117969390D02*
X129897523Y-118112247D01*
X129897523Y-118112247D02*
X129945142Y-118302723D01*
X129945142Y-118302723D02*
X129992761Y-118397961D01*
X129992761Y-118397961D02*
X130087999Y-118493200D01*
X130087999Y-118493200D02*
X130230856Y-118540819D01*
X130230856Y-118540819D02*
X130468951Y-118540819D01*
X127508000Y-110236000D02*
X137668000Y-110236000D01*
X137668000Y-125984000D01*
X127508000Y-125984000D01*
X127508000Y-110236000D01*
X132277476Y-85688819D02*
X132610809Y-85212628D01*
X132848904Y-85688819D02*
X132848904Y-84688819D01*
X132848904Y-84688819D02*
X132467952Y-84688819D01*
X132467952Y-84688819D02*
X132372714Y-84736438D01*
X132372714Y-84736438D02*
X132325095Y-84784057D01*
X132325095Y-84784057D02*
X132277476Y-84879295D01*
X132277476Y-84879295D02*
X132277476Y-85022152D01*
X132277476Y-85022152D02*
X132325095Y-85117390D01*
X132325095Y-85117390D02*
X132372714Y-85165009D01*
X132372714Y-85165009D02*
X132467952Y-85212628D01*
X132467952Y-85212628D02*
X132848904Y-85212628D01*
X131896523Y-85403104D02*
X131420333Y-85403104D01*
X131991761Y-85688819D02*
X131658428Y-84688819D01*
X131658428Y-84688819D02*
X131325095Y-85688819D01*
X131039380Y-85641200D02*
X130896523Y-85688819D01*
X130896523Y-85688819D02*
X130658428Y-85688819D01*
X130658428Y-85688819D02*
X130563190Y-85641200D01*
X130563190Y-85641200D02*
X130515571Y-85593580D01*
X130515571Y-85593580D02*
X130467952Y-85498342D01*
X130467952Y-85498342D02*
X130467952Y-85403104D01*
X130467952Y-85403104D02*
X130515571Y-85307866D01*
X130515571Y-85307866D02*
X130563190Y-85260247D01*
X130563190Y-85260247D02*
X130658428Y-85212628D01*
X130658428Y-85212628D02*
X130848904Y-85165009D01*
X130848904Y-85165009D02*
X130944142Y-85117390D01*
X130944142Y-85117390D02*
X130991761Y-85069771D01*
X130991761Y-85069771D02*
X131039380Y-84974533D01*
X131039380Y-84974533D02*
X131039380Y-84879295D01*
X131039380Y-84879295D02*
X130991761Y-84784057D01*
X130991761Y-84784057D02*
X130944142Y-84736438D01*
X130944142Y-84736438D02*
X130848904Y-84688819D01*
X130848904Y-84688819D02*
X130610809Y-84688819D01*
X130610809Y-84688819D02*
X130467952Y-84736438D01*
X130039380Y-85688819D02*
X130039380Y-84688819D01*
X130039380Y-84688819D02*
X129658428Y-84688819D01*
X129658428Y-84688819D02*
X129563190Y-84736438D01*
X129563190Y-84736438D02*
X129515571Y-84784057D01*
X129515571Y-84784057D02*
X129467952Y-84879295D01*
X129467952Y-84879295D02*
X129467952Y-85022152D01*
X129467952Y-85022152D02*
X129515571Y-85117390D01*
X129515571Y-85117390D02*
X129563190Y-85165009D01*
X129563190Y-85165009D02*
X129658428Y-85212628D01*
X129658428Y-85212628D02*
X130039380Y-85212628D01*
X128706047Y-85165009D02*
X128563190Y-85212628D01*
X128563190Y-85212628D02*
X128515571Y-85260247D01*
X128515571Y-85260247D02*
X128467952Y-85355485D01*
X128467952Y-85355485D02*
X128467952Y-85498342D01*
X128467952Y-85498342D02*
X128515571Y-85593580D01*
X128515571Y-85593580D02*
X128563190Y-85641200D01*
X128563190Y-85641200D02*
X128658428Y-85688819D01*
X128658428Y-85688819D02*
X129039380Y-85688819D01*
X129039380Y-85688819D02*
X129039380Y-84688819D01*
X129039380Y-84688819D02*
X128706047Y-84688819D01*
X128706047Y-84688819D02*
X128610809Y-84736438D01*
X128610809Y-84736438D02*
X128563190Y-84784057D01*
X128563190Y-84784057D02*
X128515571Y-84879295D01*
X128515571Y-84879295D02*
X128515571Y-84974533D01*
X128515571Y-84974533D02*
X128563190Y-85069771D01*
X128563190Y-85069771D02*
X128610809Y-85117390D01*
X128610809Y-85117390D02*
X128706047Y-85165009D01*
X128706047Y-85165009D02*
X129039380Y-85165009D01*
X128039380Y-85165009D02*
X127706047Y-85165009D01*
X127563190Y-85688819D02*
X128039380Y-85688819D01*
X128039380Y-85688819D02*
X128039380Y-84688819D01*
X128039380Y-84688819D02*
X127563190Y-84688819D01*
X126563190Y-85688819D02*
X126896523Y-85212628D01*
X127134618Y-85688819D02*
X127134618Y-84688819D01*
X127134618Y-84688819D02*
X126753666Y-84688819D01*
X126753666Y-84688819D02*
X126658428Y-84736438D01*
X126658428Y-84736438D02*
X126610809Y-84784057D01*
X126610809Y-84784057D02*
X126563190Y-84879295D01*
X126563190Y-84879295D02*
X126563190Y-85022152D01*
X126563190Y-85022152D02*
X126610809Y-85117390D01*
X126610809Y-85117390D02*
X126658428Y-85165009D01*
X126658428Y-85165009D02*
X126753666Y-85212628D01*
X126753666Y-85212628D02*
X127134618Y-85212628D01*
X125563190Y-85688819D02*
X125896523Y-85212628D01*
X126134618Y-85688819D02*
X126134618Y-84688819D01*
X126134618Y-84688819D02*
X125753666Y-84688819D01*
X125753666Y-84688819D02*
X125658428Y-84736438D01*
X125658428Y-84736438D02*
X125610809Y-84784057D01*
X125610809Y-84784057D02*
X125563190Y-84879295D01*
X125563190Y-84879295D02*
X125563190Y-85022152D01*
X125563190Y-85022152D02*
X125610809Y-85117390D01*
X125610809Y-85117390D02*
X125658428Y-85165009D01*
X125658428Y-85165009D02*
X125753666Y-85212628D01*
X125753666Y-85212628D02*
X126134618Y-85212628D01*
X124944142Y-85212628D02*
X124944142Y-85688819D01*
X125277475Y-84688819D02*
X124944142Y-85212628D01*
X124944142Y-85212628D02*
X124610809Y-84688819D01*
X123515570Y-85688819D02*
X123515570Y-84688819D01*
X123515570Y-84688819D02*
X123134618Y-84688819D01*
X123134618Y-84688819D02*
X123039380Y-84736438D01*
X123039380Y-84736438D02*
X122991761Y-84784057D01*
X122991761Y-84784057D02*
X122944142Y-84879295D01*
X122944142Y-84879295D02*
X122944142Y-85022152D01*
X122944142Y-85022152D02*
X122991761Y-85117390D01*
X122991761Y-85117390D02*
X123039380Y-85165009D01*
X123039380Y-85165009D02*
X123134618Y-85212628D01*
X123134618Y-85212628D02*
X123515570Y-85212628D01*
X122515570Y-85688819D02*
X122515570Y-84688819D01*
X121277475Y-85688819D02*
X121277475Y-84688819D01*
X121277475Y-84688819D02*
X120896523Y-84688819D01*
X120896523Y-84688819D02*
X120801285Y-84736438D01*
X120801285Y-84736438D02*
X120753666Y-84784057D01*
X120753666Y-84784057D02*
X120706047Y-84879295D01*
X120706047Y-84879295D02*
X120706047Y-85022152D01*
X120706047Y-85022152D02*
X120753666Y-85117390D01*
X120753666Y-85117390D02*
X120801285Y-85165009D01*
X120801285Y-85165009D02*
X120896523Y-85212628D01*
X120896523Y-85212628D02*
X121277475Y-85212628D01*
X120277475Y-85688819D02*
X120277475Y-84688819D01*
X119229857Y-85593580D02*
X119277476Y-85641200D01*
X119277476Y-85641200D02*
X119420333Y-85688819D01*
X119420333Y-85688819D02*
X119515571Y-85688819D01*
X119515571Y-85688819D02*
X119658428Y-85641200D01*
X119658428Y-85641200D02*
X119753666Y-85545961D01*
X119753666Y-85545961D02*
X119801285Y-85450723D01*
X119801285Y-85450723D02*
X119848904Y-85260247D01*
X119848904Y-85260247D02*
X119848904Y-85117390D01*
X119848904Y-85117390D02*
X119801285Y-84926914D01*
X119801285Y-84926914D02*
X119753666Y-84831676D01*
X119753666Y-84831676D02*
X119658428Y-84736438D01*
X119658428Y-84736438D02*
X119515571Y-84688819D01*
X119515571Y-84688819D02*
X119420333Y-84688819D01*
X119420333Y-84688819D02*
X119277476Y-84736438D01*
X119277476Y-84736438D02*
X119229857Y-84784057D01*
X118610809Y-84688819D02*
X118420333Y-84688819D01*
X118420333Y-84688819D02*
X118325095Y-84736438D01*
X118325095Y-84736438D02*
X118229857Y-84831676D01*
X118229857Y-84831676D02*
X118182238Y-85022152D01*
X118182238Y-85022152D02*
X118182238Y-85355485D01*
X118182238Y-85355485D02*
X118229857Y-85545961D01*
X118229857Y-85545961D02*
X118325095Y-85641200D01*
X118325095Y-85641200D02*
X118420333Y-85688819D01*
X118420333Y-85688819D02*
X118610809Y-85688819D01*
X118610809Y-85688819D02*
X118706047Y-85641200D01*
X118706047Y-85641200D02*
X118801285Y-85545961D01*
X118801285Y-85545961D02*
X118848904Y-85355485D01*
X118848904Y-85355485D02*
X118848904Y-85022152D01*
X118848904Y-85022152D02*
X118801285Y-84831676D01*
X118801285Y-84831676D02*
X118706047Y-84736438D01*
X118706047Y-84736438D02*
X118610809Y-84688819D01*
X117086999Y-84688819D02*
X116848904Y-85688819D01*
X116848904Y-85688819D02*
X116658428Y-84974533D01*
X116658428Y-84974533D02*
X116467952Y-85688819D01*
X116467952Y-85688819D02*
X116229857Y-84688819D01*
X99568000Y-78994000D02*
X149606000Y-78994000D01*
X149606000Y-93472000D01*
X99568000Y-93472000D01*
X99568000Y-78994000D01*
X112541571Y-110999628D02*
X112255857Y-110999628D01*
X112255857Y-110999628D02*
X112113000Y-111071057D01*
X112113000Y-111071057D02*
X111970143Y-111213914D01*
X111970143Y-111213914D02*
X111898714Y-111499628D01*
X111898714Y-111499628D02*
X111898714Y-111999628D01*
X111898714Y-111999628D02*
X111970143Y-112285342D01*
X111970143Y-112285342D02*
X112113000Y-112428200D01*
X112113000Y-112428200D02*
X112255857Y-112499628D01*
X112255857Y-112499628D02*
X112541571Y-112499628D01*
X112541571Y-112499628D02*
X112684429Y-112428200D01*
X112684429Y-112428200D02*
X112827286Y-112285342D01*
X112827286Y-112285342D02*
X112898714Y-111999628D01*
X112898714Y-111999628D02*
X112898714Y-111499628D01*
X112898714Y-111499628D02*
X112827286Y-111213914D01*
X112827286Y-111213914D02*
X112684429Y-111071057D01*
X112684429Y-111071057D02*
X112541571Y-110999628D01*
X110541571Y-112499628D02*
X111255857Y-112499628D01*
X111255857Y-112499628D02*
X111255857Y-110999628D01*
X110041571Y-111713914D02*
X109541571Y-111713914D01*
X109327285Y-112499628D02*
X110041571Y-112499628D01*
X110041571Y-112499628D02*
X110041571Y-110999628D01*
X110041571Y-110999628D02*
X109327285Y-110999628D01*
X108684428Y-112499628D02*
X108684428Y-110999628D01*
X108684428Y-110999628D02*
X108327285Y-110999628D01*
X108327285Y-110999628D02*
X108112999Y-111071057D01*
X108112999Y-111071057D02*
X107970142Y-111213914D01*
X107970142Y-111213914D02*
X107898713Y-111356771D01*
X107898713Y-111356771D02*
X107827285Y-111642485D01*
X107827285Y-111642485D02*
X107827285Y-111856771D01*
X107827285Y-111856771D02*
X107898713Y-112142485D01*
X107898713Y-112142485D02*
X107970142Y-112285342D01*
X107970142Y-112285342D02*
X108112999Y-112428200D01*
X108112999Y-112428200D02*
X108327285Y-112499628D01*
X108327285Y-112499628D02*
X108684428Y-112499628D01*
X96774000Y-100076000D02*
X123952000Y-100076000D01*
X123952000Y-125984000D01*
X96774000Y-125984000D01*
X96774000Y-100076000D01*
X158352809Y-119388819D02*
X158828999Y-119388819D01*
X158828999Y-119388819D02*
X158828999Y-118388819D01*
X158114713Y-118388819D02*
X157448047Y-118388819D01*
X157448047Y-118388819D02*
X157876618Y-119388819D01*
X156924237Y-118817390D02*
X157019475Y-118769771D01*
X157019475Y-118769771D02*
X157067094Y-118722152D01*
X157067094Y-118722152D02*
X157114713Y-118626914D01*
X157114713Y-118626914D02*
X157114713Y-118579295D01*
X157114713Y-118579295D02*
X157067094Y-118484057D01*
X157067094Y-118484057D02*
X157019475Y-118436438D01*
X157019475Y-118436438D02*
X156924237Y-118388819D01*
X156924237Y-118388819D02*
X156733761Y-118388819D01*
X156733761Y-118388819D02*
X156638523Y-118436438D01*
X156638523Y-118436438D02*
X156590904Y-118484057D01*
X156590904Y-118484057D02*
X156543285Y-118579295D01*
X156543285Y-118579295D02*
X156543285Y-118626914D01*
X156543285Y-118626914D02*
X156590904Y-118722152D01*
X156590904Y-118722152D02*
X156638523Y-118769771D01*
X156638523Y-118769771D02*
X156733761Y-118817390D01*
X156733761Y-118817390D02*
X156924237Y-118817390D01*
X156924237Y-118817390D02*
X157019475Y-118865009D01*
X157019475Y-118865009D02*
X157067094Y-118912628D01*
X157067094Y-118912628D02*
X157114713Y-119007866D01*
X157114713Y-119007866D02*
X157114713Y-119198342D01*
X157114713Y-119198342D02*
X157067094Y-119293580D01*
X157067094Y-119293580D02*
X157019475Y-119341200D01*
X157019475Y-119341200D02*
X156924237Y-119388819D01*
X156924237Y-119388819D02*
X156733761Y-119388819D01*
X156733761Y-119388819D02*
X156638523Y-119341200D01*
X156638523Y-119341200D02*
X156590904Y-119293580D01*
X156590904Y-119293580D02*
X156543285Y-119198342D01*
X156543285Y-119198342D02*
X156543285Y-119007866D01*
X156543285Y-119007866D02*
X156590904Y-118912628D01*
X156590904Y-118912628D02*
X156638523Y-118865009D01*
X156638523Y-118865009D02*
X156733761Y-118817390D01*
X155924237Y-118388819D02*
X155828999Y-118388819D01*
X155828999Y-118388819D02*
X155733761Y-118436438D01*
X155733761Y-118436438D02*
X155686142Y-118484057D01*
X155686142Y-118484057D02*
X155638523Y-118579295D01*
X155638523Y-118579295D02*
X155590904Y-118769771D01*
X155590904Y-118769771D02*
X155590904Y-119007866D01*
X155590904Y-119007866D02*
X155638523Y-119198342D01*
X155638523Y-119198342D02*
X155686142Y-119293580D01*
X155686142Y-119293580D02*
X155733761Y-119341200D01*
X155733761Y-119341200D02*
X155828999Y-119388819D01*
X155828999Y-119388819D02*
X155924237Y-119388819D01*
X155924237Y-119388819D02*
X156019475Y-119341200D01*
X156019475Y-119341200D02*
X156067094Y-119293580D01*
X156067094Y-119293580D02*
X156114713Y-119198342D01*
X156114713Y-119198342D02*
X156162332Y-119007866D01*
X156162332Y-119007866D02*
X156162332Y-118769771D01*
X156162332Y-118769771D02*
X156114713Y-118579295D01*
X156114713Y-118579295D02*
X156067094Y-118484057D01*
X156067094Y-118484057D02*
X156019475Y-118436438D01*
X156019475Y-118436438D02*
X155924237Y-118388819D01*
X154686142Y-118388819D02*
X155162332Y-118388819D01*
X155162332Y-118388819D02*
X155209951Y-118865009D01*
X155209951Y-118865009D02*
X155162332Y-118817390D01*
X155162332Y-118817390D02*
X155067094Y-118769771D01*
X155067094Y-118769771D02*
X154828999Y-118769771D01*
X154828999Y-118769771D02*
X154733761Y-118817390D01*
X154733761Y-118817390D02*
X154686142Y-118865009D01*
X154686142Y-118865009D02*
X154638523Y-118960247D01*
X154638523Y-118960247D02*
X154638523Y-119198342D01*
X154638523Y-119198342D02*
X154686142Y-119293580D01*
X154686142Y-119293580D02*
X154733761Y-119341200D01*
X154733761Y-119341200D02*
X154828999Y-119388819D01*
X154828999Y-119388819D02*
X155067094Y-119388819D01*
X155067094Y-119388819D02*
X155162332Y-119341200D01*
X155162332Y-119341200D02*
X155209951Y-119293580D01*
X153638523Y-119293580D02*
X153686142Y-119341200D01*
X153686142Y-119341200D02*
X153828999Y-119388819D01*
X153828999Y-119388819D02*
X153924237Y-119388819D01*
X153924237Y-119388819D02*
X154067094Y-119341200D01*
X154067094Y-119341200D02*
X154162332Y-119245961D01*
X154162332Y-119245961D02*
X154209951Y-119150723D01*
X154209951Y-119150723D02*
X154257570Y-118960247D01*
X154257570Y-118960247D02*
X154257570Y-118817390D01*
X154257570Y-118817390D02*
X154209951Y-118626914D01*
X154209951Y-118626914D02*
X154162332Y-118531676D01*
X154162332Y-118531676D02*
X154067094Y-118436438D01*
X154067094Y-118436438D02*
X153924237Y-118388819D01*
X153924237Y-118388819D02*
X153828999Y-118388819D01*
X153828999Y-118388819D02*
X153686142Y-118436438D01*
X153686142Y-118436438D02*
X153638523Y-118484057D01*
X153352808Y-118388819D02*
X153019475Y-119388819D01*
X153019475Y-119388819D02*
X152686142Y-118388819D01*
X147828000Y-109474000D02*
X163830000Y-109474000D01*
X163830000Y-125984000D01*
X147828000Y-125984000D01*
X147828000Y-109474000D01*
X85598000Y-93218000D02*
X92202000Y-93218000D01*
X92202000Y-99568000D01*
X85598000Y-99568000D01*
X85598000Y-93218000D01*
X164678819Y-84232952D02*
X164678819Y-83756762D01*
X164678819Y-83756762D02*
X163678819Y-83756762D01*
X163774057Y-84518667D02*
X163726438Y-84566286D01*
X163726438Y-84566286D02*
X163678819Y-84661524D01*
X163678819Y-84661524D02*
X163678819Y-84899619D01*
X163678819Y-84899619D02*
X163726438Y-84994857D01*
X163726438Y-84994857D02*
X163774057Y-85042476D01*
X163774057Y-85042476D02*
X163869295Y-85090095D01*
X163869295Y-85090095D02*
X163964533Y-85090095D01*
X163964533Y-85090095D02*
X164107390Y-85042476D01*
X164107390Y-85042476D02*
X164678819Y-84471048D01*
X164678819Y-84471048D02*
X164678819Y-85090095D01*
X164678819Y-85566286D02*
X164678819Y-85756762D01*
X164678819Y-85756762D02*
X164631200Y-85852000D01*
X164631200Y-85852000D02*
X164583580Y-85899619D01*
X164583580Y-85899619D02*
X164440723Y-85994857D01*
X164440723Y-85994857D02*
X164250247Y-86042476D01*
X164250247Y-86042476D02*
X163869295Y-86042476D01*
X163869295Y-86042476D02*
X163774057Y-85994857D01*
X163774057Y-85994857D02*
X163726438Y-85947238D01*
X163726438Y-85947238D02*
X163678819Y-85852000D01*
X163678819Y-85852000D02*
X163678819Y-85661524D01*
X163678819Y-85661524D02*
X163726438Y-85566286D01*
X163726438Y-85566286D02*
X163774057Y-85518667D01*
X163774057Y-85518667D02*
X163869295Y-85471048D01*
X163869295Y-85471048D02*
X164107390Y-85471048D01*
X164107390Y-85471048D02*
X164202628Y-85518667D01*
X164202628Y-85518667D02*
X164250247Y-85566286D01*
X164250247Y-85566286D02*
X164297866Y-85661524D01*
X164297866Y-85661524D02*
X164297866Y-85852000D01*
X164297866Y-85852000D02*
X164250247Y-85947238D01*
X164250247Y-85947238D02*
X164202628Y-85994857D01*
X164202628Y-85994857D02*
X164107390Y-86042476D01*
X163678819Y-86375810D02*
X163678819Y-86994857D01*
X163678819Y-86994857D02*
X164059771Y-86661524D01*
X164059771Y-86661524D02*
X164059771Y-86804381D01*
X164059771Y-86804381D02*
X164107390Y-86899619D01*
X164107390Y-86899619D02*
X164155009Y-86947238D01*
X164155009Y-86947238D02*
X164250247Y-86994857D01*
X164250247Y-86994857D02*
X164488342Y-86994857D01*
X164488342Y-86994857D02*
X164583580Y-86947238D01*
X164583580Y-86947238D02*
X164631200Y-86899619D01*
X164631200Y-86899619D02*
X164678819Y-86804381D01*
X164678819Y-86804381D02*
X164678819Y-86518667D01*
X164678819Y-86518667D02*
X164631200Y-86423429D01*
X164631200Y-86423429D02*
X164583580Y-86375810D01*
X164678819Y-87423429D02*
X163678819Y-87423429D01*
X163678819Y-87423429D02*
X163678819Y-87661524D01*
X163678819Y-87661524D02*
X163726438Y-87804381D01*
X163726438Y-87804381D02*
X163821676Y-87899619D01*
X163821676Y-87899619D02*
X163916914Y-87947238D01*
X163916914Y-87947238D02*
X164107390Y-87994857D01*
X164107390Y-87994857D02*
X164250247Y-87994857D01*
X164250247Y-87994857D02*
X164440723Y-87947238D01*
X164440723Y-87947238D02*
X164535961Y-87899619D01*
X164535961Y-87899619D02*
X164631200Y-87804381D01*
X164631200Y-87804381D02*
X164678819Y-87661524D01*
X164678819Y-87661524D02*
X164678819Y-87423429D01*
X162814000Y-94742000D02*
X168148000Y-94742000D01*
X168148000Y-76962000D01*
X162814000Y-76962000D01*
X162814000Y-94742000D01*
X101639285Y-53934819D02*
X101639285Y-52934819D01*
X100591667Y-53934819D02*
X100925000Y-53458628D01*
X101163095Y-53934819D02*
X101163095Y-52934819D01*
X101163095Y-52934819D02*
X100782143Y-52934819D01*
X100782143Y-52934819D02*
X100686905Y-52982438D01*
X100686905Y-52982438D02*
X100639286Y-53030057D01*
X100639286Y-53030057D02*
X100591667Y-53125295D01*
X100591667Y-53125295D02*
X100591667Y-53268152D01*
X100591667Y-53268152D02*
X100639286Y-53363390D01*
X100639286Y-53363390D02*
X100686905Y-53411009D01*
X100686905Y-53411009D02*
X100782143Y-53458628D01*
X100782143Y-53458628D02*
X101163095Y-53458628D01*
X99829762Y-53411009D02*
X100163095Y-53411009D01*
X100163095Y-53934819D02*
X100163095Y-52934819D01*
X100163095Y-52934819D02*
X99686905Y-52934819D01*
X98829762Y-52934819D02*
X99305952Y-52934819D01*
X99305952Y-52934819D02*
X99353571Y-53411009D01*
X99353571Y-53411009D02*
X99305952Y-53363390D01*
X99305952Y-53363390D02*
X99210714Y-53315771D01*
X99210714Y-53315771D02*
X98972619Y-53315771D01*
X98972619Y-53315771D02*
X98877381Y-53363390D01*
X98877381Y-53363390D02*
X98829762Y-53411009D01*
X98829762Y-53411009D02*
X98782143Y-53506247D01*
X98782143Y-53506247D02*
X98782143Y-53744342D01*
X98782143Y-53744342D02*
X98829762Y-53839580D01*
X98829762Y-53839580D02*
X98877381Y-53887200D01*
X98877381Y-53887200D02*
X98972619Y-53934819D01*
X98972619Y-53934819D02*
X99210714Y-53934819D01*
X99210714Y-53934819D02*
X99305952Y-53887200D01*
X99305952Y-53887200D02*
X99353571Y-53839580D01*
X97925000Y-53268152D02*
X97925000Y-53934819D01*
X98163095Y-52887200D02*
X98401190Y-53601485D01*
X98401190Y-53601485D02*
X97782143Y-53601485D01*
X97210714Y-52934819D02*
X97115476Y-52934819D01*
X97115476Y-52934819D02*
X97020238Y-52982438D01*
X97020238Y-52982438D02*
X96972619Y-53030057D01*
X96972619Y-53030057D02*
X96925000Y-53125295D01*
X96925000Y-53125295D02*
X96877381Y-53315771D01*
X96877381Y-53315771D02*
X96877381Y-53553866D01*
X96877381Y-53553866D02*
X96925000Y-53744342D01*
X96925000Y-53744342D02*
X96972619Y-53839580D01*
X96972619Y-53839580D02*
X97020238Y-53887200D01*
X97020238Y-53887200D02*
X97115476Y-53934819D01*
X97115476Y-53934819D02*
X97210714Y-53934819D01*
X97210714Y-53934819D02*
X97305952Y-53887200D01*
X97305952Y-53887200D02*
X97353571Y-53839580D01*
X97353571Y-53839580D02*
X97401190Y-53744342D01*
X97401190Y-53744342D02*
X97448809Y-53553866D01*
X97448809Y-53553866D02*
X97448809Y-53315771D01*
X97448809Y-53315771D02*
X97401190Y-53125295D01*
X97401190Y-53125295D02*
X97353571Y-53030057D01*
X97353571Y-53030057D02*
X97305952Y-52982438D01*
X97305952Y-52982438D02*
X97210714Y-52934819D01*
X96686905Y-54030057D02*
X95925000Y-54030057D01*
X95734523Y-53030057D02*
X95686904Y-52982438D01*
X95686904Y-52982438D02*
X95591666Y-52934819D01*
X95591666Y-52934819D02*
X95353571Y-52934819D01*
X95353571Y-52934819D02*
X95258333Y-52982438D01*
X95258333Y-52982438D02*
X95210714Y-53030057D01*
X95210714Y-53030057D02*
X95163095Y-53125295D01*
X95163095Y-53125295D02*
X95163095Y-53220533D01*
X95163095Y-53220533D02*
X95210714Y-53363390D01*
X95210714Y-53363390D02*
X95782142Y-53934819D01*
X95782142Y-53934819D02*
X95163095Y-53934819D01*
X90424000Y-52070000D02*
X106426000Y-52070000D01*
X106426000Y-69088000D01*
X90424000Y-69088000D01*
X90424000Y-52070000D01*
X87122000Y-107950000D02*
X90424000Y-107950000D01*
X90424000Y-114046000D01*
X87122000Y-114046000D01*
X87122000Y-107950000D01*
X85344000Y-82804000D02*
X91948000Y-82804000D01*
X91948000Y-89154000D01*
X85344000Y-89154000D01*
X85344000Y-82804000D01*
X85090000Y-72644000D02*
X91948000Y-72644000D01*
X91948000Y-78994000D01*
X85090000Y-78994000D01*
X85090000Y-72644000D01*
X140088475Y-53934819D02*
X140088475Y-52934819D01*
X139040857Y-53934819D02*
X139374190Y-53458628D01*
X139612285Y-53934819D02*
X139612285Y-52934819D01*
X139612285Y-52934819D02*
X139231333Y-52934819D01*
X139231333Y-52934819D02*
X139136095Y-52982438D01*
X139136095Y-52982438D02*
X139088476Y-53030057D01*
X139088476Y-53030057D02*
X139040857Y-53125295D01*
X139040857Y-53125295D02*
X139040857Y-53268152D01*
X139040857Y-53268152D02*
X139088476Y-53363390D01*
X139088476Y-53363390D02*
X139136095Y-53411009D01*
X139136095Y-53411009D02*
X139231333Y-53458628D01*
X139231333Y-53458628D02*
X139612285Y-53458628D01*
X138278952Y-53411009D02*
X138612285Y-53411009D01*
X138612285Y-53934819D02*
X138612285Y-52934819D01*
X138612285Y-52934819D02*
X138136095Y-52934819D01*
X137707523Y-53934819D02*
X137517047Y-53934819D01*
X137517047Y-53934819D02*
X137421809Y-53887200D01*
X137421809Y-53887200D02*
X137374190Y-53839580D01*
X137374190Y-53839580D02*
X137278952Y-53696723D01*
X137278952Y-53696723D02*
X137231333Y-53506247D01*
X137231333Y-53506247D02*
X137231333Y-53125295D01*
X137231333Y-53125295D02*
X137278952Y-53030057D01*
X137278952Y-53030057D02*
X137326571Y-52982438D01*
X137326571Y-52982438D02*
X137421809Y-52934819D01*
X137421809Y-52934819D02*
X137612285Y-52934819D01*
X137612285Y-52934819D02*
X137707523Y-52982438D01*
X137707523Y-52982438D02*
X137755142Y-53030057D01*
X137755142Y-53030057D02*
X137802761Y-53125295D01*
X137802761Y-53125295D02*
X137802761Y-53363390D01*
X137802761Y-53363390D02*
X137755142Y-53458628D01*
X137755142Y-53458628D02*
X137707523Y-53506247D01*
X137707523Y-53506247D02*
X137612285Y-53553866D01*
X137612285Y-53553866D02*
X137421809Y-53553866D01*
X137421809Y-53553866D02*
X137326571Y-53506247D01*
X137326571Y-53506247D02*
X137278952Y-53458628D01*
X137278952Y-53458628D02*
X137231333Y-53363390D01*
X136326571Y-52934819D02*
X136802761Y-52934819D01*
X136802761Y-52934819D02*
X136850380Y-53411009D01*
X136850380Y-53411009D02*
X136802761Y-53363390D01*
X136802761Y-53363390D02*
X136707523Y-53315771D01*
X136707523Y-53315771D02*
X136469428Y-53315771D01*
X136469428Y-53315771D02*
X136374190Y-53363390D01*
X136374190Y-53363390D02*
X136326571Y-53411009D01*
X136326571Y-53411009D02*
X136278952Y-53506247D01*
X136278952Y-53506247D02*
X136278952Y-53744342D01*
X136278952Y-53744342D02*
X136326571Y-53839580D01*
X136326571Y-53839580D02*
X136374190Y-53887200D01*
X136374190Y-53887200D02*
X136469428Y-53934819D01*
X136469428Y-53934819D02*
X136707523Y-53934819D01*
X136707523Y-53934819D02*
X136802761Y-53887200D01*
X136802761Y-53887200D02*
X136850380Y-53839580D01*
X135421809Y-53268152D02*
X135421809Y-53934819D01*
X135659904Y-52887200D02*
X135897999Y-53601485D01*
X135897999Y-53601485D02*
X135278952Y-53601485D01*
X134707523Y-52934819D02*
X134612285Y-52934819D01*
X134612285Y-52934819D02*
X134517047Y-52982438D01*
X134517047Y-52982438D02*
X134469428Y-53030057D01*
X134469428Y-53030057D02*
X134421809Y-53125295D01*
X134421809Y-53125295D02*
X134374190Y-53315771D01*
X134374190Y-53315771D02*
X134374190Y-53553866D01*
X134374190Y-53553866D02*
X134421809Y-53744342D01*
X134421809Y-53744342D02*
X134469428Y-53839580D01*
X134469428Y-53839580D02*
X134517047Y-53887200D01*
X134517047Y-53887200D02*
X134612285Y-53934819D01*
X134612285Y-53934819D02*
X134707523Y-53934819D01*
X134707523Y-53934819D02*
X134802761Y-53887200D01*
X134802761Y-53887200D02*
X134850380Y-53839580D01*
X134850380Y-53839580D02*
X134897999Y-53744342D01*
X134897999Y-53744342D02*
X134945618Y-53553866D01*
X134945618Y-53553866D02*
X134945618Y-53315771D01*
X134945618Y-53315771D02*
X134897999Y-53125295D01*
X134897999Y-53125295D02*
X134850380Y-53030057D01*
X134850380Y-53030057D02*
X134802761Y-52982438D01*
X134802761Y-52982438D02*
X134707523Y-52934819D01*
X134183714Y-54030057D02*
X133421809Y-54030057D01*
X133231332Y-53030057D02*
X133183713Y-52982438D01*
X133183713Y-52982438D02*
X133088475Y-52934819D01*
X133088475Y-52934819D02*
X132850380Y-52934819D01*
X132850380Y-52934819D02*
X132755142Y-52982438D01*
X132755142Y-52982438D02*
X132707523Y-53030057D01*
X132707523Y-53030057D02*
X132659904Y-53125295D01*
X132659904Y-53125295D02*
X132659904Y-53220533D01*
X132659904Y-53220533D02*
X132707523Y-53363390D01*
X132707523Y-53363390D02*
X133278951Y-53934819D01*
X133278951Y-53934819D02*
X132659904Y-53934819D01*
X128524000Y-52070000D02*
X144272000Y-52070000D01*
X144272000Y-69088000D01*
X128524000Y-69088000D01*
X128524000Y-52070000D01*
M02*
