M48
; DRILL file {KiCad 7.0.10} date Tue Mar 26 13:20:51 2024
; FORMAT={-:-/ absolute / inch / decimal}
; #@! TF.CreationDate,2024-03-26T13:20:51+05:30
; #@! TF.GenerationSoftware,Kicad,Pcbnew,7.0.10
; #@! TF.FileFunction,Plated,1,2,PTH
FMAT,2
INCH
; #@! TA.AperFunction,Plated,PTH,ViaDrill
T1C0.0197
; #@! TA.AperFunction,Plated,PTH,ComponentDrill
T2C0.0315
; #@! TA.AperFunction,Plated,PTH,ComponentDrill
T3C0.0394
; #@! TA.AperFunction,Plated,PTH,ComponentDrill
T4C0.0433
%
G90
G05
T1
X3.61Y-2.2
X3.61Y-2.3
X3.61Y-2.39
X3.61Y-2.49
X3.61Y-2.59
X3.61Y-2.68
X3.68Y-4.14
X3.7Y-2.2
X3.7Y-2.3
X3.7Y-2.39
X3.8Y-2.2
X3.8Y-2.3
X3.8Y-2.39
X3.9Y-2.2
X3.9Y-2.3
X3.9Y-2.39
X3.92Y-4.01
X4.0Y-2.2
X4.0Y-2.3
X4.0Y-2.39
X4.0Y-2.46
X4.0Y-4.09
X4.1Y-2.2
X4.1Y-2.3
X4.1Y-2.39
X4.17Y-4.19
X4.4Y-2.2
X4.4Y-2.3
X4.4Y-2.4
X4.51Y-2.2
X4.6Y-2.2
X4.65Y-2.48
X4.7Y-2.2
X4.7Y-2.4
X4.72Y-4.27
X4.8Y-2.2
X4.8Y-2.8
X4.8Y-2.9
X4.86Y-2.38
X4.9Y-2.2
X4.9Y-2.8
X4.9Y-2.9
X5.0Y-2.8
X5.0Y-2.9
X5.04Y-2.28
X5.1Y-4.51
X5.1Y-4.6
X5.11Y-2.8
X5.11Y-2.9
X5.14Y-4.83
X5.14Y-4.9
X5.15Y-2.19
X5.23Y-4.83
X5.23Y-4.9
X5.27Y-2.19
X5.31Y-4.83
X5.31Y-4.9
X5.39Y-2.19
X5.51Y-2.19
X5.61Y-2.19
X5.8342Y-2.48
X5.88Y-4.35
X5.88Y-4.44
X5.9Y-2.21
X5.9Y-2.3
X5.9Y-4.61
X5.9Y-4.71
X5.9Y-4.81
X5.9Y-4.9
X6.0Y-4.61
X6.0Y-4.81
X6.0Y-4.9
X6.01Y-2.2
X6.04Y-3.22
X6.1Y-4.61
X6.1Y-4.81
X6.1Y-4.9
X6.11Y-2.2
X6.12Y-2.38
X6.12Y-2.57
X6.12Y-3.64
X6.18Y-3.1
X6.2Y-4.61
X6.2Y-4.81
X6.2Y-4.9
X6.21Y-2.2
X6.31Y-2.2
X6.31Y-2.3
X6.31Y-2.4
X6.31Y-2.49
X6.31Y-3.86
X6.31Y-4.61
X6.31Y-4.7
X6.31Y-4.81
X6.31Y-4.9
X6.39Y-2.3
X6.4Y-2.2
X6.4Y-2.4
X6.4Y-2.49
X6.4Y-4.35
X6.4Y-4.44
X6.4Y-4.61
X6.4Y-4.7
X6.4Y-4.81
X6.4Y-4.9
X6.43Y-3.3
X6.5Y-3.62
X6.53Y-3.08
X6.6Y-3.4
T2
X6.36Y-3.0
X6.36Y-3.1
X6.36Y-3.2
X6.36Y-3.3
X6.36Y-3.4
X6.36Y-3.5
X6.36Y-3.6
X6.36Y-3.7
X6.66Y-3.0
X6.66Y-3.1
X6.66Y-3.2
X6.66Y-3.3
X6.66Y-3.4
X6.66Y-3.5
X6.66Y-3.6
X6.66Y-3.7
T3
X3.5Y-4.3202
X3.5Y-4.4202
X3.96Y-3.04
X3.96Y-3.74
X4.06Y-3.04
X4.06Y-3.74
X4.16Y-3.04
X4.16Y-3.74
X4.1924Y-4.0043
X4.26Y-3.04
X4.26Y-3.74
X4.2924Y-4.0043
X4.36Y-3.04
X4.36Y-3.74
X4.3924Y-4.0043
X4.46Y-3.04
X4.46Y-3.74
X4.4924Y-4.0043
X4.56Y-3.04
X4.56Y-3.74
X4.66Y-3.04
X4.66Y-3.74
X4.76Y-3.04
X4.76Y-3.74
X4.86Y-3.04
X4.86Y-3.74
X4.96Y-3.04
X4.96Y-3.74
X5.06Y-3.04
X5.06Y-3.74
X5.0619Y-4.1215
X5.0725Y-4.4166
X5.16Y-3.04
X5.16Y-3.74
X5.1615Y-4.1215
X5.1725Y-4.4166
X5.26Y-3.04
X5.26Y-3.74
X5.2619Y-4.1215
X5.2725Y-4.4166
X5.36Y-3.04
X5.36Y-3.74
X5.3619Y-4.1215
X5.3725Y-4.4166
X5.46Y-3.04
X5.46Y-3.74
X5.4619Y-4.1215
X5.56Y-3.04
X5.56Y-3.74
X5.5619Y-4.1215
X5.66Y-3.04
X5.66Y-3.74
X5.76Y-3.04
X5.76Y-3.74
X5.86Y-3.04
X5.86Y-3.74
T4
X3.49Y-2.93
X3.49Y-3.03
X3.5Y-3.34
X3.5Y-3.44
X3.51Y-3.75
X3.51Y-3.85
X3.7816Y-2.6683
X3.8816Y-2.6683
X3.9816Y-2.6683
X4.5216Y-2.6674
X4.6216Y-2.6674
X4.7216Y-2.6674
X5.2716Y-2.6674
X5.3716Y-2.6674
X5.4716Y-2.6674
X6.0216Y-2.6674
X6.0384Y-4.3619
X6.1216Y-2.6674
X6.1384Y-4.3619
X6.2216Y-2.6674
X6.2384Y-4.3619
M30
