%TF.GenerationSoftware,KiCad,Pcbnew,7.0.10*%
%TF.CreationDate,2024-03-26T13:20:44+05:30*%
%TF.ProjectId,PocketPCR,506f636b-6574-4504-9352-2e6b69636164,rev?*%
%TF.SameCoordinates,Original*%
%TF.FileFunction,Soldermask,Top*%
%TF.FilePolarity,Negative*%
%FSLAX46Y46*%
G04 Gerber Fmt 4.6, Leading zero omitted, Abs format (unit mm)*
G04 Created by KiCad (PCBNEW 7.0.10) date 2024-03-26 13:20:44*
%MOMM*%
%LPD*%
G01*
G04 APERTURE LIST*
G04 Aperture macros list*
%AMRoundRect*
0 Rectangle with rounded corners*
0 $1 Rounding radius*
0 $2 $3 $4 $5 $6 $7 $8 $9 X,Y pos of 4 corners*
0 Add a 4 corners polygon primitive as box body*
4,1,4,$2,$3,$4,$5,$6,$7,$8,$9,$2,$3,0*
0 Add four circle primitives for the rounded corners*
1,1,$1+$1,$2,$3*
1,1,$1+$1,$4,$5*
1,1,$1+$1,$6,$7*
1,1,$1+$1,$8,$9*
0 Add four rect primitives between the rounded corners*
20,1,$1+$1,$2,$3,$4,$5,0*
20,1,$1+$1,$4,$5,$6,$7,0*
20,1,$1+$1,$6,$7,$8,$9,0*
20,1,$1+$1,$8,$9,$2,$3,0*%
%AMFreePoly0*
4,1,28,0.605014,0.794986,0.644504,0.794986,0.724698,0.756366,0.780194,0.686777,0.800000,0.600000,0.800000,-0.600000,0.780194,-0.686777,0.724698,-0.756366,0.644504,-0.794986,0.605014,-0.794986,0.600000,-0.800000,0.000000,-0.800000,-0.178017,-0.779942,-0.347107,-0.720775,-0.498792,-0.625465,-0.625465,-0.498792,-0.720775,-0.347107,-0.779942,-0.178017,-0.800000,0.000000,-0.779942,0.178017,
-0.720775,0.347107,-0.625465,0.498792,-0.498792,0.625465,-0.347107,0.720775,-0.178017,0.779942,0.000000,0.800000,0.600000,0.800000,0.605014,0.794986,0.605014,0.794986,$1*%
%AMFreePoly1*
4,1,28,0.178017,0.779942,0.347107,0.720775,0.498792,0.625465,0.625465,0.498792,0.720775,0.347107,0.779942,0.178017,0.800000,0.000000,0.779942,-0.178017,0.720775,-0.347107,0.625465,-0.498792,0.498792,-0.625465,0.347107,-0.720775,0.178017,-0.779942,0.000000,-0.800000,-0.600000,-0.800000,-0.605014,-0.794986,-0.644504,-0.794986,-0.724698,-0.756366,-0.780194,-0.686777,-0.800000,-0.600000,
-0.800000,0.600000,-0.780194,0.686777,-0.724698,0.756366,-0.644504,0.794986,-0.605014,0.794986,-0.600000,0.800000,0.000000,0.800000,0.178017,0.779942,0.178017,0.779942,$1*%
G04 Aperture macros list end*
%ADD10C,3.000000*%
%ADD11RoundRect,0.250000X-0.350000X-0.450000X0.350000X-0.450000X0.350000X0.450000X-0.350000X0.450000X0*%
%ADD12RoundRect,0.250000X-0.450000X0.350000X-0.450000X-0.350000X0.450000X-0.350000X0.450000X0.350000X0*%
%ADD13RoundRect,0.150000X-0.150000X0.587500X-0.150000X-0.587500X0.150000X-0.587500X0.150000X0.587500X0*%
%ADD14R,1.600000X1.600000*%
%ADD15O,1.600000X1.600000*%
%ADD16R,1.905000X2.000000*%
%ADD17O,1.905000X2.000000*%
%ADD18R,2.100000X2.100000*%
%ADD19C,2.100000*%
%ADD20RoundRect,0.250000X-0.412500X-0.650000X0.412500X-0.650000X0.412500X0.650000X-0.412500X0.650000X0*%
%ADD21O,1.600000X2.000000*%
%ADD22R,1.422400X0.558800*%
%ADD23RoundRect,0.250000X0.412500X0.650000X-0.412500X0.650000X-0.412500X-0.650000X0.412500X-0.650000X0*%
%ADD24C,1.600000*%
%ADD25R,1.700000X1.700000*%
%ADD26O,1.700000X1.700000*%
%ADD27RoundRect,0.250000X0.450000X-0.350000X0.450000X0.350000X-0.450000X0.350000X-0.450000X-0.350000X0*%
%ADD28RoundRect,0.200000X-0.600000X0.600000X-0.600000X-0.600000X0.600000X-0.600000X0.600000X0.600000X0*%
%ADD29FreePoly0,270.000000*%
%ADD30FreePoly1,270.000000*%
G04 APERTURE END LIST*
D10*
%TO.C,H3*%
X86360000Y-54610000D03*
%TD*%
D11*
%TO.C,R1*%
X166904000Y-97551000D03*
X168904000Y-97551000D03*
%TD*%
D12*
%TO.C,R2*%
X159004000Y-75454000D03*
X159004000Y-77454000D03*
%TD*%
D13*
%TO.C,Q5*%
X148778000Y-98963000D03*
X146878000Y-98963000D03*
X147828000Y-100838000D03*
%TD*%
D14*
%TO.C,U5*%
X169164000Y-93980000D03*
D15*
X169164000Y-91440000D03*
X169164000Y-88900000D03*
X169164000Y-86360000D03*
X169164000Y-83820000D03*
X169164000Y-81280000D03*
X169164000Y-78740000D03*
X169164000Y-76200000D03*
X161544000Y-76200000D03*
X161544000Y-78740000D03*
X161544000Y-81280000D03*
X161544000Y-83820000D03*
X161544000Y-86360000D03*
X161544000Y-88900000D03*
X161544000Y-91440000D03*
X161544000Y-93980000D03*
%TD*%
D16*
%TO.C,Q4*%
X96052000Y-67776000D03*
D17*
X98592000Y-67776000D03*
X101132000Y-67776000D03*
%TD*%
D18*
%TO.C,J4*%
X88646000Y-76962000D03*
D19*
X88646000Y-74422000D03*
%TD*%
D18*
%TO.C,J1*%
X89154000Y-97790000D03*
D19*
X89154000Y-95250000D03*
%TD*%
D10*
%TO.C,H4*%
X86360000Y-122936000D03*
%TD*%
D12*
%TO.C,R3*%
X158242000Y-89170000D03*
X158242000Y-91170000D03*
%TD*%
D10*
%TO.C,H1*%
X169418000Y-54864000D03*
%TD*%
D20*
%TO.C,C2*%
X150329500Y-106934000D03*
X153454500Y-106934000D03*
%TD*%
D21*
%TO.C,U4*%
X106486000Y-101709000D03*
X109026000Y-101709000D03*
X111566000Y-101709000D03*
X114106000Y-101709000D03*
%TD*%
D22*
%TO.C,U1*%
X89865200Y-105092500D03*
X89865200Y-103187500D03*
X87934800Y-104140000D03*
%TD*%
D12*
%TO.C,R6*%
X94742000Y-91948000D03*
X94742000Y-93948000D03*
%TD*%
D23*
%TO.C,C1*%
X160312500Y-106934000D03*
X157187500Y-106934000D03*
%TD*%
D10*
%TO.C,H2*%
X169164000Y-122936000D03*
%TD*%
D14*
%TO.C,J5*%
X128840500Y-112180500D03*
D24*
X131380500Y-112180500D03*
X133920500Y-112180500D03*
X136460500Y-112180500D03*
%TD*%
D16*
%TO.C,Q1*%
X152948000Y-67751000D03*
D17*
X155488000Y-67751000D03*
X158028000Y-67751000D03*
%TD*%
D25*
%TO.C,J3*%
X88900000Y-112273000D03*
D26*
X88900000Y-109733000D03*
%TD*%
D14*
%TO.C,HC-1*%
X128571500Y-104686500D03*
D24*
X131101500Y-104686500D03*
X133651500Y-104686500D03*
X136191500Y-104686500D03*
X138731500Y-104686500D03*
X141271500Y-104686500D03*
%TD*%
D27*
%TO.C,R4*%
X158242000Y-95742000D03*
X158242000Y-93742000D03*
%TD*%
D16*
%TO.C,Q3*%
X133898000Y-67751000D03*
D17*
X136438000Y-67751000D03*
X138978000Y-67751000D03*
%TD*%
D16*
%TO.C,Q2*%
X114848000Y-67751000D03*
D17*
X117388000Y-67751000D03*
X119928000Y-67751000D03*
%TD*%
D12*
%TO.C,R7*%
X94742000Y-81566000D03*
X94742000Y-83566000D03*
%TD*%
D16*
%TO.C,U3*%
X158456000Y-110793500D03*
D17*
X155916000Y-110793500D03*
X153376000Y-110793500D03*
%TD*%
D28*
%TO.C,U2*%
X148844000Y-77216000D03*
D24*
X146304000Y-77216000D03*
D29*
X143764000Y-77216000D03*
D24*
X141224000Y-77216000D03*
X138684000Y-77216000D03*
X136144000Y-77216000D03*
X133604000Y-77216000D03*
D29*
X131064000Y-77216000D03*
D24*
X128524000Y-77216000D03*
X125984000Y-77216000D03*
X123444000Y-77216000D03*
X120904000Y-77216000D03*
D29*
X118364000Y-77216000D03*
D24*
X115824000Y-77216000D03*
X113284000Y-77216000D03*
X110744000Y-77216000D03*
X108204000Y-77216000D03*
D29*
X105664000Y-77216000D03*
D24*
X103124000Y-77216000D03*
X100584000Y-77216000D03*
X100584000Y-94996000D03*
X103124000Y-94996000D03*
D30*
X105664000Y-94996000D03*
D24*
X108204000Y-94996000D03*
X110744000Y-94996000D03*
X113284000Y-94996000D03*
X115824000Y-94996000D03*
D30*
X118364000Y-94996000D03*
D24*
X120904000Y-94996000D03*
X123444000Y-94996000D03*
X125984000Y-94996000D03*
X128524000Y-94996000D03*
D30*
X131064000Y-94996000D03*
D24*
X133604000Y-94996000D03*
X136144000Y-94996000D03*
X138684000Y-94996000D03*
X141224000Y-94996000D03*
D30*
X143764000Y-94996000D03*
D24*
X146304000Y-94996000D03*
X148844000Y-94996000D03*
%TD*%
D27*
%TO.C,R5*%
X158252000Y-85851000D03*
X158252000Y-83851000D03*
%TD*%
D18*
%TO.C,J2*%
X88900000Y-87376000D03*
D19*
X88900000Y-84836000D03*
%TD*%
M02*
